<?xml version="1.0" encoding="UTF-8" standalone="no"?>
<svg
   xmlns:dc="http://purl.org/dc/elements/1.1/"
   xmlns:cc="http://creativecommons.org/ns#"
   xmlns:rdf="http://www.w3.org/1999/02/22-rdf-syntax-ns#"
   xmlns:svg="http://www.w3.org/2000/svg"
   xmlns="http://www.w3.org/2000/svg"
   xmlns:sodipodi="http://sodipodi.sourceforge.net/DTD/sodipodi-0.dtd"
   xmlns:inkscape="http://www.inkscape.org/namespaces/inkscape"
   viewBox="0 0 512 512"
   version="1.1"
   id="svg3763"
   sodipodi:docname="brainly_tools.svg"
   width="512"
   height="512"
   inkscape:version="0.92.3 (unknown)"
   inkscape:export-xdpi="96"
   inkscape:export-ydpi="96">
  <metadata
     id="metadata3769">
    <rdf:RDF>
      <cc:Work
         rdf:about="">
        <dc:format>image/svg+xml</dc:format>
        <dc:type
           rdf:resource="http://purl.org/dc/dcmitype/StillImage" />
        <dc:title></dc:title>
        <cc:license
           rdf:resource="https://visualpharm.com/free-icons/toolbox-595b40b85ba036ed117dbc72" />
      </cc:Work>
    </rdf:RDF>
  </metadata>
  <defs
     id="defs3767" />
  <sodipodi:namedview
     pagecolor="#ffffff"
     bordercolor="#666666"
     borderopacity="1"
     objecttolerance="10"
     gridtolerance="10"
     guidetolerance="10"
     inkscape:pageopacity="0"
     inkscape:pageshadow="2"
     inkscape:window-width="1920"
     inkscape:window-height="1048"
     id="namedview3765"
     showgrid="false"
     inkscape:zoom="1"
     inkscape:cx="275.42126"
     inkscape:cy="301.08424"
     inkscape:window-x="1440"
     inkscape:window-y="32"
     inkscape:window-maximized="1"
     inkscape:current-layer="brainlyToolsLogo"
     units="px"
     fit-margin-top="0"
     fit-margin-left="0"
     fit-margin-right="0"
     fit-margin-bottom="0" />
  <g
     id="brainlyToolsLogo"
     transform="translate(0,-31.000003)"
     sodipodi:insensitive="true">
    <title
       id="title85">Brainly Tools logo</title>
    <path
       inkscape:connector-curvature="0"
       style="fill:#231f20;fill-opacity:1;stroke-width:25"
       id="toolbox"
       d="M 205.99998,62.000006 C 178.5,62.000006 155.99999,84.500011 155.99999,112 v 25 H 56 C 28.499998,137 6,159.5 6,187 v 49.99999 H 506 V 187 c 0,-27.5 -22.49999,-50 -50,-50 H 356 V 112 C 356,84.500011 333.5,62.000006 306.00001,62.000006 Z m 0,49.999994 h 100.00003 v 25 H 205.99998 Z M 6,261.99999 v 204.6875 C 6,491.68751 28.499998,512 56,512 h 400 c 27.50001,0 50,-20.31249 50,-45.31251 v -204.6875 h -75 v 25.00003 H 331 V 261.99999 H 181 v 25.00003 H 80.999999 v -25.00003 z">
      <title
         id="title89">Toolbox</title>
    </path>
    <g
       transform="matrix(0.43150437,0,0,0.43150437,70.453121,305.1966)"
       id="brainlyLogoContainer">
      <title
         id="title87">Brainly logo container</title>
      <polygon
         style="display:none;fill:#231f20"
         points="0,148.05 0,383.55 860,236.37 860,0 "
         id="brainlyLogoBlackLine">
        <title
           id="title3796">Brainly logo black line</title>
      </polygon>
      <g
         style="fill:#ffffff"
         id="brainlyLogo">
        <title
           id="title3794">Brainly logo</title>
        <path
           inkscape:connector-curvature="0"
           d="m 150.02,237.68 c 8.731,-4.99 18.807,-17.401 18.807,-32.91 0,-15.522 -10.076,-23.454 -19.774,-25.651 -9.685,-2.198 -22.287,-0.974 -33.92,1.013 L 47.23,191.806 v 31.599 l 12.654,-2.106 v 70.548 l -12.654,2.104 v 31.603 l 78.568,-13.523 c 12.603,-2.163 26.165,-7.407 34.875,-14.75 8.73,-7.3 14.959,-17.107 14.959,-32.609 0,-15.51 -10.11,-25.4 -25.62,-26.98 z m -46.52,-23.93 8.726,-1.514 c 4.855,-0.834 6.789,-1.173 9.691,0.273 2.908,1.432 3.881,3.599 3.881,7.085 0,3.286 -0.973,5.772 -3.881,8.241 -2.902,2.426 -4.836,2.956 -9.691,3.796 l -8.726,1.497 v -19.39 z m 24.24,63.07 c -2.913,2.442 -4.847,3.367 -9.691,4.201 l -14.546,2.506 v -21.315 l 14.546,-2.498 c 4.844,-0.854 6.779,-0.803 9.691,0.629 2.896,1.424 3.875,4.185 3.875,7.663 0,3.27 -0.98,6.35 -3.88,8.81 z"
           id="letterB">
          <title
             id="title3804">B</title>
        </path>
        <path
           inkscape:connector-curvature="0"
           d="m 428.05,125.99 -4.236,0.729 v 115.61 l -40.197,-108.66 -48.471,8.394 -40.425,123.2 -19.658,-29.828 c 5.818,-4.493 22.281,-17.054 22.281,-44.181 0,-14.541 -6.775,-24.999 -16.463,-30.114 -9.71,-5.116 -22.309,-5.815 -38.78,-2.991 l -58.156,10.078 v 133.76 l 43.807,-7.589 v -44.58 l 5.63,-0.981 21.328,40.906 33.916,-5.902 16.476,-2.848 29.075,-5.011 5.045,-19.683 38.193,-6.593 5.237,17.9 41.16,-7.124 v 0.018 l 43.813,-7.591 v -133.79 l -39.577,6.829 v 0.02 z m -179.74,84.97 c -1.737,1.688 -4.844,3.189 -9.683,4.012 l -11.054,1.922 v -23.272 l 11.054,-1.89 c 4.839,-0.844 7.751,-0.394 9.683,0.829 1.945,1.014 4.85,2.441 4.85,8.29 0,5.79 -2.73,8.22 -4.85,10.11 z m 100.22,10.19 9.876,-37.559 9.898,34.143 -19.78,3.42 z"
           id="lettersRAI">
          <title
             id="title3802">RAI</title>
        </path>
        <path
           inkscape:connector-curvature="0"
           d="m 567.77,152.16 c 0,9.691 0.971,24.071 0.971,24.071 l -38.773,-67.932 -47.491,8.22 v 133.76 l 42.648,-7.381 v -50.4 c 0,-9.685 -0.959,-24.065 -0.959,-24.065 l 40.705,67.58 45.539,-7.879 V 94.384 l -42.64,7.367 v 50.4 z"
           id="letterN">
          <title
             id="title3800">N</title>
        </path>
        <polygon
           points="731.88,73.251 683.42,81.641 729.75,155.01 729.75,171.5 668.88,182.05 668.88,84.139 625.27,91.705 625.27,225.44 729.75,207.35 766.6,201 773.56,199.76 773.56,147.43 820.06,57.991 771.63,66.376 751.64,114.97 "
           id="lettersLY">
          <title
             id="title3798">LY</title>
        </polygon>
      </g>
    </g>
  </g>
</svg>
