<svg xmlns="http://www.w3.org/2000/svg" viewBox="0 0 404 378"><ellipse cx="202.17" cy="318.83" fill="#333331" rx="200.04" ry="57.31"/><radialGradient id="a" cx="418.71" cy="419.43" r="180.34" gradientTransform="matrix(.805 0 0 .805 -134.87 -26.627)" gradientUnits="userSpaceOnUse"><stop offset="0" stop-color="#878787"/><stop offset=".1" stop-color="#727271"/><stop offset=".25" stop-color="#5C5C5B"/><stop offset=".4" stop-color="#4B4A4A"/><stop offset=".56" stop-color="#40403F"/><stop offset=".76" stop-color="#3C3C3B"/></radialGradient><ellipse cx="202.17" cy="310.99" fill="url(#a)" rx="200.04" ry="57.31"/><linearGradient id="b" x1="369.31" x2="511.9" y1="267.96" y2="297.44" gradientUnits="userSpaceOnUse" gradientTransform="translate(-218.443 -108.44)"><stop offset="0" stop-color="#706F6F"/><stop offset=".15" stop-color="#5C5B5B"/><stop offset=".33" stop-color="#4B4A4A"/><stop offset=".52" stop-color="#40403F"/><stop offset=".76" stop-color="#3C3C3B"/></linearGradient><path fill="url(#b)" d="M313.4 301.85v.03l-.18 1.5c-3.2 14.73-51.67 26.4-111.07 26.4-59.36 0-107.83-11.67-111.03-26.4-.14-.5-.17-1.02-.17-1.53v-.17l.3-1.16.55-2.07 2.38-6.4 14.6-39.12.64-1.77L202.15 2.22l92.7 248.8.64 1.74L310 291.9l2.4 6.4.56 2.2.35 1.4z"/><path fill="#F9B016" d="M310.1 291.92c-10.83 5.74-41.1 17.3-108.94 17.3-67.25 0-96.5-11.35-106.98-17.17 0 0-.3-2.08 1.44-8.75.77-2.93 7.65-19.63 8.5-22.1 2.83-8.14 4.65-8.27 4.65-8.27 19.36 5.17 53.04 10.38 92.7 10.38 40.07 0 74.33-5.3 94.02-10.5 0 0 1.9 2.2 3.9 7.2 1 2.54 6.4 15.9 8.72 23.56 2.22 7.26 1.9 8.44 1.9 8.44z"/><path fill="#3C3C3B" d="M229.56 313.5h-51.3c-10.6 0-19.28-8.7-19.28-19.3v-25.7c0-10.6 8.68-19.3 19.3-19.3h51.28c10.6 0 19.3 8.7 19.3 19.3v25.7c0 10.6-8.7 19.3-19.3 19.3z"/><path fill="#F9B016" d="M229.56 320.3h-51.3c-14.38 0-26.08-11.7-26.08-26.1v-25.7c0-14.38 11.7-26.1 26.1-26.1h51.28c14.4 0 26.1 11.7 26.1 26.1v25.7c0 14.4-11.7 26.1-26.1 26.1zm-51.3-64.28c-6.87 0-12.47 5.6-12.47 12.48v25.7c0 6.9 5.6 12.5 12.4 12.5h51.3c6.86 0 12.46-5.6 12.46-12.5v-25.7c0-6.88-5.6-12.48-12.48-12.48h-51.3z"/><linearGradient id="c" x1="469.77" x2="428.31" y1="389.58" y2="389.58" gradientUnits="userSpaceOnUse" gradientTransform="translate(-218.443 -108.44)"><stop offset="0" stop-color="#D38F19"/><stop offset=".09" stop-color="#DA9619"/><stop offset=".32" stop-color="#EBA418"/><stop offset=".58" stop-color="#F5AC18"/><stop offset=".9" stop-color="#F8AF18"/></linearGradient><path fill="url(#c)" d="M250.67 284.24h-40.15c-.36 0-.65-.3-.65-.65v-4.9c0-.4.3-.7.65-.7h40.15c.36 0 .66.3.66.62v4.9c0 .34-.3.63-.66.63z"/></svg>