<svg xmlns="http://www.w3.org/2000/svg" viewBox="-.2 0 59.99 56.87"><path fill="#FFF" d="M51.18 56.42c-.92 0-1.87-.04-2.87-.1l-1-.04c-1.1-.05-2.2-.13-3.4-.23-2.6-.2-5.5-.4-10.1-.4-2.3 0-4.8.05-7.5.17l-2.9.13c-4.9.2-8.8.38-11.8.38-4.3 0-6.4-.36-7.7-1.32-2.5-1.8-4.4-5.5-3.3-8.2.6-1.3 1.9-3 5.3-3.1H6c1.6 0 2.6 1.2 3.3 2l.36.4h.7C9.3 40.7 7.1 28.3 6 23.6c-.47-2.07-.98-3.96-1.42-5.63-1.13-4.27-1.6-6.04-1.05-7.43.82-2.1 7.6-7.36 22.3-9.34C28.8.8 31.6.6 34.13.6 45.5.6 49.87 4.54 51.55 7.86c1.82 3.57 1.02 10.93-.12 19.46-.28 2.06-.52 3.84-.6 5-.25 3.6-.44 8.83-.5 11.78.9-.56 2.22-1.18 3.9-1.2 1.7 0 3.2.83 4.2 2.27 1.35 1.94 1.6 4.56.64 7.02-1.64 4.2-6.02 4.2-7.9 4.2z"/><path d="M56.08 46.72c-2.17.03-3.54 1.48-3.76 1.58-.2.1-2.7.04-3-.03-.28-.07.08-10.6.44-15.92.36-5.3 3.4-20.68 1.05-25.37-2.3-4.7-9.8-7.9-24.9-5.85C10.8 3.2 4.4 8.56 4 9.68c-.5 1.12 1.2 6.14 2.7 12.74 1.5 6.6 5 27.04 5.05 27.33.04.3-3.4.36-4.5.3C6.12 49.95 5 47.4 4 47.45c-.75.02-2.73.13-3.38 1.8-.65 1.65.8 4.58 2.67 5.98 1.8 1.4 9.3.94 22.4.36 13.1-.6 18 .2 22.9.5 4.8.2 8.8.7 10.1-2.8 1.3-3.5-.6-6.7-2.7-6.6zm-44.5-10.84c-.1 0-1.26-6.28-2-10.25-.77-3.96-2.75-11.47-3.12-13.3-.36-1.85.65-3.33 3.2-4.38 2.6-1.05 14.64-4.75 23.5-5.27 8.9-.5 13.7 2.78 15 4.55 1.36 1.77.67 3.5.67 3.5S45.47 6.8 45.25 6.6c-.2-.17-.68.6-.6 1.1.06.5 3.96 4 4.1 4.26.15.25 0 3.2-.07 3.46-.07.26-4.5-5.34-4.73-5.38-.2-.03-.36.87-.36 1.12 0 .25 4.8 5.24 4.9 5.38 0 .14-.2 2.5-.3 2.67-.2.2-4.3-5.3-4.7-5.6-.5-.3-.6.9-.5 1.1 0 .3 4.9 5.6 4.9 5.6l-.2 3.1s-4.2-4.9-4.4-5c-.2 0-.4 1.1-.3 1.3 0 .3 4.5 4.9 4.7 5 .2.1-.1 2.6-.2 2.8-.1.2-4-4.7-4.3-5-.3-.3-.6 1-.6 1.2 0 .2 4.6 5.1 4.6 5.1s-.1 2.9-.2 3.1c-.1.2-3.9-4.5-4.1-4.5-.2 0-.6 1-.6 1.2 0 .2 4.5 5.1 4.5 5.1v1.7c0 .1-1.4 0-1.5 0-.1 0-2.37-3.3-2.66-3.6-.28-.3-1.2.5-1.2.7 0 .2 2.44 3.1 2.44 3.1l-19.9.5c-.3 0-.5-2.74-.44-3 .05-.24-8.25.2-8.6.37-.35.2-.03 2.25-.03 2.25s-3.5.5-3.6.5zm31.65 9.57c.22.3 3.4 2.67 3.07 2.85-.32.18-2.63.18-2.7 0-.08-.18-2.24-2.1-2.46-2.1-.22 0-.97.26-.83.7.2.43 2.5 1.12 1.7 1.4-.8.3-13 .44-20.2.87-7.2.43-7.6.68-7.7.32-.1-.4-.6-3.9-.5-4.1.2-.3 3.4-.6 3.4-.6s.5 2.2.8 2.3c.3 0 7.1.1 7.1-.4s.2-2.5.4-2.6c.2-.2 8.2-.4 14.1-.6 5.9-.3 7.8-.3 7.9-.1.1.2.2 3.5 0 3.4-.2-.1-2.7-2.8-3-2.8-.3 0-1 .8-.8 1.1zM16.28 34.6c.17-.36 6.02-.77 6.2-.48.18.3 1.27 11 .98 11.22-.3.22-4.84.94-5.05.44-.2-.5-2.2-10.9-2.1-11.2zm40.88 17.13c-.5 1.23-2.34 2.17-3.32 2.2-.97.04-14.8-.65-26.85-.47-12.1.2-17.8.73-20.8.47-3-.25-4-2.2-4-2.45s.5-1.4.9-1.34c.2.04 2.1 1.95 3.7 1.92 1.6-.04 11.5-.8 23.6-1.34 12.1-.54 21.4-.07 22.5-.07 1.1 0 1.2-.1 1.6-.4.3-.3.9-1.05 1.5-.9.7.14 1.4 1.15.9 2.38zM9.06 12.86c-.18.32 1.9 8.3 1.9 8.3l1.13-.1s-1.2-8.02-1.4-8.53c-.2-.5-1.6.2-1.7.33z"/></svg>