<svg xmlns="http://www.w3.org/2000/svg" viewBox="0 0 64 54"><path fill="#F8E1C2" d="M55.9 36.64v-12c0-13.25-10.74-24-24-24s-24 10.75-24 24v12l-7 7.02c-.23.22-.34.55-.28.87.05.32.26.6.55.73 20.5 9.84 40.98 9.84 61.47 0 .3-.14.5-.4.56-.73.05-.32-.05-.65-.28-.87l-7-7.02z"/><path fill="#FCF1E2" d="M7.9 24.64v12l-7 7.02c-.23.22-.34.55-.28.87.05.32.26.6.55.73 10.25 4.92 20.5 7.38 30.74 7.38v-52c-13.2 0-24 10.75-24 24z"/><path fill="#A97A45" d="M7.9 32.64h48v4h-48z"/><path fill="#FA5655" d="M59.92 29.25l-4.84 1.82 2.13-4.7c.5-1.02.1-2.2-1-2.66-1-.4-2.1 0-2.6 1l-2.1 4.8-1.8-4.83c-.4-1.03-1.53-1.55-2.57-1.17-1.03.4-1.55 1.55-1.16 2.6l1.8 4.82-4.7-2.13c-1-.48-2.2 0-2.65 1-.45 1 0 2.2 1 2.62l4.7 2.14-4.83 1.83c-1 .4-1.55 1.53-1.16 2.57s1.55 1.56 2.58 1.17l4.85-1.8L45.4 43c-.47 1 0 2.2 1 2.65 1 .46 2.2 0 2.63-1l2.13-4.7L53 44.8c.4 1.03 1.53 1.56 2.56 1.17 1.03-.4 1.55-1.53 1.16-2.56l-1.82-4.8 4.7 2.15c1 .44 2.2 0 2.64-1 .45-1 0-2.2-1-2.66l-4.7-2.15 4.8-1.84c1.03-.4 1.55-1.55 1.17-2.6-.4-1.02-1.52-1.54-2.6-1.15z"/><circle cx="74.26" cy="61" r="3" fill="#FACB1B" transform="translate(-22.998 -26.356)"/><path fill="#D4A263" d="M7.9 32.64h24v4h-24z"/></svg>