<svg xmlns="http://www.w3.org/2000/svg" width="400" height="400"><g fill-rule="evenodd"><path fill="#1c8b3b" d="M376.4 83.1c.5 8.8.3 15.8-.4 17.8-.8 2.2-1 2.2-7 .1a22.2 22.2 0 0 0-7.4-1.6l-3-.1.1 2.1c1 9.3 1 21.7.3 26.5l-.2 1.4h-3.2c-1.8 0-5-.4-7.4-.8a60 60 0 0 0-6.3-.7h-2.2l-.8 1.8c-.8 1.9-.8 2-1 13.7-.1 8-.3 12.1-.6 13l-.4 1.2-2.5-.2c-1.4-.1-4.4-.7-6.7-1.3-6-1.7-7.4-1.8-7.9-.6l-.6 1.5c0 .3-.2 4.2-.2 8.6 0 7.7 0 8-.8 9.7l-.7 1.6h-2.1c-3.2 0-14.2-1.2-16-1.7-.7-.2-1 1-2 9-1.3 11.3-1.3 11.2-2.3 11.2-.5 0-3.4-.9-6.5-2-4.6-1.5-6.1-1.8-7.9-1.9h-2.2l-.7 2-2.6 8.3c-3.4 11.5-2.7 11-9.4 8.3a24 24 0 0 0-10.1-2.5c-4.5 0-4.5 0-5.8 5.5a64 64 0 0 1-5.6 15.6l-3.4-2.1a55 55 0 0 0-11-5.7l-1.7-.5-1 .9c-1.5 1.5-2 2.4-4.5 10-5.6 16.7-5.3 16.6-17.1 6.8a98 98 0 0 0-4.9-3.8l-1.6.5-1.5.5-.9 3.5c-1.4 6-5.7 18-6.7 19-.4.5-2.4-.7-6.1-3.5-10-7.4-15.6-8.9-17.4-4.5-.4.8-1.6 4.7-2.9 8.7-1.9 6.2-3.7 11.7-4 12-.2.5-4.1-2-10.8-7.3-8.4-6.6-11.8-4.5-15.6 10-1.2 4.7-2.3 7.8-2.8 7.8-1.1 0-10.8-6-14-8.5-3.1-2.6-5.2-3.3-7.4-2.5-1 .4-1.8 2-6.3 12-3.5 8-5.1 11.2-5.4 11.2-.5 0-5.6-3.3-11.7-7.7a299 299 0 0 0-8-5.4l-1.1-.7-1 .6a33.3 33.3 0 0 0-8.2 12.2c-3.5 7.3-7.2 13-8.5 13-.5 0-3.4-2.1-7-5-6.6-5.3-9.8-7-13.2-6.6l-1.7.3A318 318 0 0 0 26 317c.5.5 2.8.7 4.7.6l2-.2 1.1-2c.6-1 1.8-3.4 2.6-5.3 2-4.6 3.7-8 4.9-9.3l1-1.2 1.6 1.2c1 .6 3.6 2.8 5.8 4.7l5.7 4.8 1.6 1.2 1-.6c.5-.4 2-.9 3.1-1.1 4.7-1.1 5-1.5 8-8.8 2.3-5.4 4.2-8.6 6-10.6l1.8-2 2.8 2.9c3 3 7 6 10.2 7.7l2 1 4-1.4c2-.8 4.6-1.6 5.4-1.8l1.6-.4.4-1.7c.4-1.7.9-2.9 4.1-10.2 2.8-6.2 4.5-7.3 6.7-4.6s8.9 7.7 11.1 8.4c1.6.5 3 0 6.4-1.9a23 23 0 0 1 4-2c.7-.1 1.3-.4 1.3-.5 0-3.8 4-15.3 5.2-15.3.9 0 4.7 2.1 9 5l4.4 3 1-.4c.5-.3 3-1.3 5.4-2.1l4.5-1.6 1.8-5.4c2.7-7.8 3.7-10.1 4.5-10.1 1.3 0 3.3 1.1 5.9 3.4 4.8 4.2 6.5 4.3 11.7.7 1.8-1.2 3.9-2.4 4.7-2.7 1.6-.6 1.4-.4 3.8-7 1.2-3.1 2.5-6 2.8-6 .4 0 3.6 1.7 6 3.2l2.6 1.5 2.3-1a68 68 0 0 0 5.5-3.3 77.2 77.2 0 0 1 7-4c0-2.5 4.3-14.6 5.2-14.6.6 0 3.4 1.4 5.6 2.9a20 20 0 0 0 3.2 1.8l1.4.5 4.5-2.2 4.5-2.2 2-5.8c3.8-11.6 4.4-12 11.8-8.1 5 2.5 6.7 2.3 11-1.2a28 28 0 0 1 3.8-2.8c1.4-.7 1.5-1 1.5-1.8 0-1.7.9-4.4 2.4-8.1l1.5-3.4h1.4c.7 0 3.1.5 5.3 1.3l4 1.3 4-2.7 3.9-2.7.2-2.3c.6-6.2 2.2-11.5 3.4-11.1.8.2 4.2.9 7.7 1.4 2.8.5 2.8.5 6.8-3.4 1.6-1.5 3.2-3 3.6-3.2.7-.5.7-.8 1-5.3.1-2.7.4-5.3.5-5.9l.1-1 2 .1c1.1.1 3 .6 4.3 1l2.3.8 1-1 3-2.4c4.7-3.7 5.2-4.8 5.6-13a34 34 0 0 1 1-8c.8-3 .7-2.9 2.9-2.4 1 .3 3.4.7 5.2 1l3.3.4.4-.7 3.3-3.7c3.8-4.1 4.6-5.5 4.6-8.5l.4-7.8c.5-4.9.5-8.4 0-10.1-.2-.5 0-.6.7-.4 1.6.4 2.8 1 5.4 3.3 3.2 2.7 3 2.7 5.2.1 3.6-4.4 5.8-10 5.8-15 0-5.4-3.5-17.7-5.4-18.8-.2-.2-.2 1 0 4.9M354 84.4l-1 3.6a43.1 43.1 0 0 1-4.7 12.4 739.3 739.3 0 0 0-10-2.7l-2.7-.8-.7 1.4c-1 1.7-1.7 3.3-4.3 10.8a76.7 76.7 0 0 1-2.4 6.3c-.3.3-5-1-9.6-2.5-4-1.4-3.6-1.6-5.4 3.5a62.3 62.3 0 0 1-5.4 11.8l-.6.7-4.5-1.3-6.9-2.1-2.3-.8-.9 1c-1.5 1.8-3 4.6-5 10.1l-3 7.2-1 1.9-2.3-.2-5.4-.7a55 55 0 0 0-6.1-.4h-3l-.7 2.1c-.3 1.2-1.4 4-2.4 6s-2 4.7-2.3 5.8l-.5 2h-7.6c-7 0-7.6.1-7.8.6-.9 2.2-1.6 4.6-2.5 8.6l-1 4.5.8.9c2.1 2.2 3 1 4.1-5.1l1.1-5 .5-1 2 .1 5.6 1.2c3.1.8 3.8 1 4.6.6a35 35 0 0 0 6.7-4.5c-.4-.4.6-4.5 2-8.3l1.5-3.8 1.4.2c2 .2 4.6.9 8.7 2.2 4.1 1.3 3.7 1.3 7.7-1.3 3-2 3-1.8 4-8.2.8-4.8 1.5-6.9 2.8-8.1l1-1 4 1.7c10.4 4.2 12.9 2.8 15-8 .7-4 1.9-7.3 2.5-7.3l4.2 2c5.4 2.8 4.8 2.7 8.4.4l3-2 1-3.5 2-6.9 1-3.2 1.5.1c.8.1 2.8.8 4.6 1.4 5.3 2.2 4.8 2.3 8.2-2.2a93.5 93.5 0 0 0 9.2-15.2c2.2-4.6 2.2-4.4.3-4.5l-4-.4c-3-.6-3.3-.6-3.4-.1m-129.8 94l-.8 7.8a75 75 0 0 0-.6 7.6v3l2-1.3a326 326 0 0 1 5.3-3.3c3.7-2.3 9.3-6.4 10.5-7.6l.7-.9-2-1c-1-.5-3.4-1.8-5.3-3a35 35 0 0 0-8-4l-1.6-.4-.2 3.1M200 188.8c-.6 2.9-2.9 20.9-2.6 21.1.2.2 18.6-9 19.6-9.8.5-.4.7-.7.7-.8a192.6 192.6 0 0 0-17.4-11.2c-.1 0-.3.3-.3.7M174 200.4a55 55 0 0 0-1.7 8c-.7 4.6-1.8 13-1.7 13.1.4.4 14.1-5.4 19-8l3.6-2-.8-.6a150 150 0 0 0-15.6-10.2l-2.5-1.3-.3 1M148.6 216c-3.5 9.6-5.4 15-5.2 15.1.3.4 22-7.1 22.7-7.8a69 69 0 0 0-15-13.7l-2.5 6.4m-19.3 9.1a24 24 0 0 0-4.6 8.5c-1.5 4.2-3 7.4-3.3 7.4l-3.8-1.1c-9.8-3-14.3-3-18.2.3-1.3 1-1.8 2.1-3.6 7.3-2 5.6-1.5 5.2-6 4.2-10.5-2.5-12-1.8-15 7.1a32 32 0 0 1-3 7.7c-.2.3-1.2.1-3.2-.4-4.2-1-9.4-1.9-12.5-2h-2.6l-1 1.3c-1.6 2.1-2.8 5.3-4.5 11.5-1.8 6.8-1.5 6.5-7.2 6.5-3.6 0-4.5-.1-9.1-1.3-7.7-1.9-7-1.8-7-.6 0 .5-.5 3-1.2 5.4-1.2 4-2 9.2-1.4 9.2l1.7-.4 2.7-.8 1.3-.3.2-2.5c.3-4.7.1-4.6 7.8-3.5l6 .9 2.9-1 5.2-1.9c3.2-1.1 3.6-1.5 3.8-4 .5-4.4 2.2-10.3 3-10.3l2 .3c9.4 1.6 15.5.8 18.5-2.4.8-.9 2.3-5.2 3.7-10.8.2-1.2.6-2.2.7-2.3.7-.7 4.4 0 9 1.8l2 .8 4-2.3 3.8-2.2 1-3.8c1.3-4.5 2.9-8.2 3.6-8.2 1 0 3 .6 5.7 1.9 4.6 2 6.6 1.7 12-1.8l4.2-2.5c1.3-.5 1.3-.6 2.6-4.3 1.2-3.7 2.8-7.1 3.4-7.1l3.3 1.4c3.7 1.7 3.5 1.9 2.4-2-.8-3.2-.8-3.2-2-3.4-.5 0-2.1-.5-3.5-.9l-2.5-.7-1.3 1.3"/><path fill="#d2131b" d="M381.5 107.5c-2.7 5.7-7.7 13.6-14 21.9-20.9 27.3-25 32.2-36.6 43a358.2 358.2 0 0 1-38.5 31.8 294 294 0 0 0-13.1 8.4c-5.3 3.5-11.4 7.3-13.6 8.5-2.3 1.2-8.3 4.7-13.3 7.7l-12.9 7.5c-8.3 4.6-10.4 5.8-20.7 12a430.4 430.4 0 0 1-71.2 34.5l-13.6 5.5c-2.8 1.3-8.4 3.3-12.6 4.7l-21.9 7.2A936 936 0 0 1 32 320.6c-.3 0 .2.5 1.4 1.1l3.3 2c5.5 3.8 8.2 4.1 16.1 2l8.2-1.9c13-2.6 36.6-10.2 53.2-17l24.8-10c53.6-21.3 73.7-31.2 109.9-54 54-33.9 71.9-47.2 96-71.3a250.5 250.5 0 0 0 27.3-31.3l8.4-10.5c6-7.1 6.2-8.6 3.7-19.4-1.5-6.6-1.2-6.3-2.8-2.8m-42.5 11l-9 6.3c-15.7 12-35 24.4-53.6 34.8a1100.9 1100.9 0 0 0-24.2 13.8c-6.7 3.8-7 4-4.4 7.2 2.2 2.6 2 2.6 6 0 7-4.8 17-10.5 38.4-22.1 37.4-20.4 39.6-22 48.9-36.9l4.1-6.5c1.3-1.8 1.2-1.8-6.2 3.4m-111 44c-8.3 7.5-40.5 23-73.3 35.2-6.9 2.5-17.4 6-18.2 6-.6 0-.5 3.9.1 4.5 1 1 19-5.2 36-12.4 27.7-12 49-23.7 55.9-31 2.6-2.9 2.3-4.7-.4-2.2m15.6 22.5a76.7 76.7 0 0 1-15.3 10.7 876 876 0 0 0-10.5 6.5 397 397 0 0 1-66.5 29l-8.3 2.9v1.5c.3 3.5-.2 3.4 7.9 1 37.4-11.2 77.2-31.2 93-46.7 4.4-4.3 4.4-4.5 3-6l-1-1.1-2.3 2.2M135 240l-16 8.4a283.5 283.5 0 0 0-34 19.3c-6 3.8-18.8 12.6-18.7 12.7 0 0 3-1 6.5-2.4A85.6 85.6 0 0 1 89 273c3.9-.7 4.6-1 7-3.3 4.9-4.5 18.8-13 31.7-19.3 4.7-2.3 9.8-5 11.3-6l2.8-1.8-.2-1.3c-.7-4-1.3-4.2-6.6-1"/><path fill="#e3cb73" d="M138.6 85.8c-7.4 1.5-13 7.4-15.7 16.6-3.6 12-1 41.7 6.7 76 1.6 7.1 5.5 23 5.6 23 .2.3 5.5-1.3 11.2-3.2 30.7-10.5 73.6-31 80.8-38.8l.8-.8-3-4.4c-18.8-28-46.4-55.7-64-64.2-8.2-4-16.4-5.5-22.4-4.2m184.8 57.7c-7 4.7-15 9.2-32.2 18.4a285.2 285.2 0 0 0-37 22l-2.7 2 2.3 3.4c3.7 5 5.6 7.6 7 9l1.2 1 6.7-4.8c27.6-19.7 49-39 57.5-51.9 1.2-1.8 1-1.7-2.8.9m58.2 10.2c-3.4 3.2-4.8 5.9-4.8 9 0 4.7-3.7 8.2-10.3 9.4-7.4 1.4-8.8 3-12 12.9-3.4 10.8-7 14.1-16.2 15-5.5.5-9 4.2-14.7 15-4.4 8.7-8.8 10.9-20.2 10.4-4.3-.1-7.7 2.6-13.2 10.6-6.4 9.3-7.3 9.8-21.1 12.1-8.8 1.5-9.3 1.9-15 10.5-6.1 9.3-10 11.5-16 9.4-5.3-1.8-9.4.1-16.4 8-8.4 9.3-13 11.8-18.6 10.4-6.4-1.6-12.6.2-18.5 5.1l-5.7 4.9c-6.6 5.6-11 7-16.5 5.3-6.2-2-9-.7-20 8.8-9.6 8.2-12 9-23.3 9h-7.7l-2 1c-2 1-3.4 2.2-7.2 6.3-3.4 3.7-6.2 4.5-12.3 3.6-7.7-1.1-11.2 0-17.3 5.6l-1 .8.8.1c7.5 1.2 38-7.4 64.8-18.2 47.6-19.2 108-46.2 123.3-55.2 35.2-20.6 87-57.7 99.3-71l8.7-9.4a49.5 49.5 0 0 0 15.2-26c1.7-6.3 1.4-6.7-2-3.4M255.4 197c0 3.1-3.7 5.5-9.4 6.1l-4.6.5c-1.7.2-3.2 1.5-6.4 5.4-5.3 6.6-7.7 8-13.5 8.1-4.9 0-5.6.5-9.4 5.2-3.5 4.5-5.1 5.3-11.2 5.6-6 .3-7 .8-10.5 5.4-2.9 3.8-4.1 4.3-10.3 4.3-6.3 0-6.7.2-10.3 3.6-4.2 4-4.2 4-10 4.1-5.5 0-5.7.1-8.4 2.4-2.7 2.2-5.2 6.2-4 6.2.8 0 38-15.9 50.5-21.5 11-4.9 37.6-18.4 55.8-28.3 4.2-2.2 4.5-2.4 4.3-3.2-.4-1.9-2.6-5.1-2.6-4M137 248.8c-10 4.7-18.1 9-25.5 13.4a154 154 0 0 0-11.7 7.7c.5.5 30-8.6 40.4-12.5l4.4-1.7-.2-.9a294 294 0 0 1-1.7-8.2c-.2-.2-1.8.4-5.7 2.2"/><path fill="#050504" d="M368.7 70.9c-3.6.6-6.2 2-19.4 10.3a429 429 0 0 0-31.1 21.9c-44.8 33.6-56.3 42-69.1 50-6.2 4-14.2 8.7-14.6 8.7-.6 0-5.4-6.4-11.5-15.6a219.6 219.6 0 0 0-39.7-44c-18-15.8-33-22.1-45.6-19.1-17.6 4.2-22.2 22-16.5 65.2 1.7 13.1 5.6 32 9 43.2 1.4 4.8 1.8 6.8 3.7 16.7.3 1.8 1 4.3 1.4 5.6l.8 2.3-1.5 1.4c-4 3.5-10.3 7.3-21.4 12.7-4.6 2.2-9.2 4.7-10.3 5.5-1.3.9-2.8 1.6-4.1 2-1.2.3-2.4.8-2.9 1.2-2.6 2-10 6-32.4 17.5-40 20.3-57.5 32.3-56.8 39.2.6 6.5 11.8 19.8 22.3 26.3 11.4 7 38.6 18.2 44.5 18.2 6.7 0 21.5-3.4 35-8A1244.5 1244.5 0 0 0 233 280.5c29-13.7 43.4-22.6 94.3-58.3a312.5 312.5 0 0 0 41.7-35.8c18.2-18.1 22.6-37.2 17.9-76.4-2.3-18.6-6-31.5-10.6-36.5-2.4-2.6-4.2-3.2-7.7-2.6m4 5c1.3 4.8 1.9 23 .9 23.3-.2.1-2.4-.4-4.8-1-2.4-.8-5.3-1.4-6.3-1.5-2.4-.3-2.6.6 1.6-7.3a81.8 81.8 0 0 0 6.3-14c.8-2.6 1.7-2.4 2.4.6m-5-.6c0 .5-.8 2.3-1.6 4l-1.4 3-1.6-.1c-3.6-.4-5.8-.8-7-1.2l-1.2-.4 1.9-1.2a63 63 0 0 1 10.5-5.1c.3 0 .4.4.4 1m10.2 5c6 12.3 4.9 24-2.8 32.9l-1.1 1.2-1-.7c-.7-.4-2-1.5-3.1-2.4-1.9-1.6-3.7-2.6-4.6-2.6-.2 0-.4 1.4-.4 4.6 0 15.5-.2 16.6-5.2 22.1-1.9 2-3.4 3.8-3.4 4 0 .5-3.3.2-7.5-.6-2.6-.6-3.3-.6-3.5-.3-.8 1.3-1.3 4-1.5 9.5-.4 9-.9 10-6.6 14.4l-3.5 2.8-1.8-.7c-2.4-.8-6-1.4-6.4-1-.1.1-.4 2.7-.5 5.7l-.3 5.4-3.2 3c-3.7 3.5-5.9 5.1-6.5 5-.2-.2-2.2-.5-4.5-.9a32 32 0 0 1-4.6-1c-.9-.4-.9-.4-1.6 1.4-.8 2.2-1.5 5.7-1.9 9.2-.2 2-.4 2.9-.8 3.1l-4 2.7-3.4 2.4-1.3-.4-3.7-1.2c-2.6-.9-5-1.3-5.5-.9-.9.6-3.7 8.2-4 10.8-.2 1.6-.3 1.8-1.5 2.4-.8.3-2.5 1.5-3.8 2.7-4.6 3.8-6 4-11.6 1.1-6.8-3.4-8-2.7-10.9 6.9a89 89 0 0 1-1.8 5.2l-.7 2-4.5 2.2c-5.3 2.6-5 2.6-9.2 0-2.8-2-5.4-3.2-5.7-2.9-1 1-4.3 10.4-4.6 12.7l-.2 1.8-1.8 1-5.7 3.3c-6.9 4.3-7 4.3-10.4 2.3-3-1.8-5-2.8-5.5-2.8s-2 3.5-3.8 8.4c-.8 2.2-1.6 4-1.9 4-1.4.5-3.8 1.7-5.4 2.9-5.3 3.8-7.4 3.8-12.1-.4-2.4-2.2-3.9-3-5.4-3.5-1.1-.2-1.9 1.3-4.8 9.8l-1.9 5.7-3.4 1.2c-2 .6-4.4 1.5-5.6 2l-2.1 1-4.6-3.1c-5-3.4-8.4-5.3-9-5-1.2.8-4.6 11.3-4.6 14.6 0 .7-.1 1-.9 1-.9.3-3.2 1.4-6.6 3.2-3.8 2.1-8.3.1-15-6.8-2.5-2.5-3-2.6-4.5-.9-1.2 1.4-5.6 11-6.7 14.5l-.6 2.2-2.5.8-5.5 1.8-3 1-2-1a42 42 0 0 1-9.9-7.4l-3-3-1.7 1.7a38.4 38.4 0 0 0-6.1 11c-3 6.9-3.4 7.4-7.8 8.5-1.4.3-3 .9-3.5 1.1-1.3.7-1.5.5-7.7-4.9-4.5-3.9-7.4-6.2-8-6.2-.7 0-2.6 3.3-5.6 10.2a56.6 56.6 0 0 1-3.1 6.2l-1 1.5h-2.8c-3.7 0-4.1-.3-3.3-2.4 1.5-4 10-21.4 10.6-21.8 2.5-1.6 7.6.5 14.6 6.2l5.3 4 1.8 1.1 1.2-1.2c1.8-1.7 4-5.1 6.6-10.6 3.7-7.7 6-11.2 8.7-13.2l1.3-1 2.4 1.6 7.5 5.3 8 5.5 2.8 1.7 1-1.8 4.2-9.4c5.2-11.6 5.4-11.9 7-12.3 2.2-.6 4.1.2 7.6 3.1 1.8 1.6 6.2 4.3 10.9 6.9l2.4 1.3.8-1.7c.4-.9 1.2-3.7 1.9-6.2 2.4-9.2 4.3-12.4 8.2-13.8 1.6-.5 4.3 1 11.2 6.6 3.2 2.6 6.5 4.6 7 4.3.4-.2 1.7-4.2 4.3-12.6 3-9.9 3.4-10.5 6.7-10.5 2.3 0 8.2 3 13.3 7 3.4 2.6 5.4 3.8 6 3.6.9-.4 5.9-14.5 7-19.8l.5-2.7 1.7-.6 1.8-.6 2.9 2.4c14 11.6 13.2 11.8 19-5.6 2.4-6.8 3.2-8.6 4.7-10l.8-.7 2 .7c2.7 1 7.8 3.7 11.2 6 2.2 1.5 3 1.8 3.2 1.5 1-1.8 4.2-11.3 5.6-17 .9-3.7 1.1-3.8 6-3.8 2.5 0 3.3.2 6.2 1.2l6.3 2.2 3 1.1.5-1.3 2.1-6.5 2.9-9.2 1.3-4 2 .1c1.2.2 4.4 1 7.6 2l6.6 2.1c1.4.2 1 1.3 2.5-9.7 1.3-11 1.2-10.3 2.5-10.3l6.2.7c2.8.4 6.6.7 8.3.7h3.2l.6-1.2c.6-1 .6-2.2.8-9.8.2-12.5-.2-12 9-9.7 5 1.3 8.2 1.7 8.8 1.3 1-.6 1.3-4.4 1.3-14.5 0-16.1-.1-15.9 9.4-14.3 2.2.3 5.6.7 7.6.8l3.7.1.2-.9a270.1 270.1 0 0 0-.3-29c.7-.6 5.8 0 10 1.5 6 1.9 6.7 2 7.3.3.8-2.3 1-6.7.7-11.8l-.5-8.4-.2-3.6.7.6c.3.3 1 1.4 1.5 2.5m-27 5.1c0 1-.9 3.8-1.8 6a83.7 83.7 0 0 0-2.2 5.7c-.5 0-7-2-9-2.7l-2.4-.9 1-.7 7.4-5.2 6.7-4.7c.4-.7.6.6.4 2.5m9.3-.8l3 .4-1.5 3a99.4 99.4 0 0 1-11.2 18.4c-1.9 2.4-2 2.4-6.8.6-3-1.2-5.7-1.9-6-1.5-.2.2-1.9 5.7-3.5 11.6-.5 1.7-.6 1.8-3.5 3.7-3.6 2.4-3.3 2.4-8.2 0-2.1-1.2-4.1-2-4.4-2-.8 0-2 3-2.8 7.5-1.5 8-3.1 10-8.2 9.6a46 46 0 0 1-10.5-3.6c-1.2-.7-3 3.7-4 9.6-1 5.8-.8 5.5-4.3 7.8-3.5 2.1-3.9 2.2-6.6 1.3a63 63 0 0 0-9.9-2.5c-1.4 0-4.3 7.4-4.3 10.9 0 1.4-.2 1.6-5 4.5l-2.5 1.5-4.3-1c-7.7-2-7.5-2.1-8.8 4.8-1 5.8-2 6.9-4.1 5l-1.1-.8.6-2.7c.9-4.3 2-8.4 2.7-10l.6-1.5 7.6-.1 7.5-.1.4-1.7 2.3-5.6 2.4-5.9c1-3 1.6-3.1 10-2l6.2.6h1.5l1-2c.5-1 1.6-3.6 2.4-5.8 2.3-6 5.6-12.3 6.4-12.2l1.7.6c5 1.9 12.1 3.7 12.6 3.2 1-1.3 4.2-8.4 5.5-12.4.9-2.4 1.6-4.3 1.8-4.3l5.5 1.7 6.4 2c1.4.2 1.3.5 4-7.8 2-5.6 4.2-10.6 4.8-10.6.2 0 3 .7 6.3 1.7 3.2 1 6 1.7 6.2 1.5 1-.6 3.6-7.3 5-13.2l.7-3 1.8.2 4.6.6m-211 1c20.2 4.2 51 31.9 75.5 68l3.4 5-1.7 1.5c-10.9 9.7-63.5 34-88.7 40.9l-2.8.7-.3-1.1c-9.3-35.4-14.5-68.3-13.7-87.4.8-20.4 11.6-31 28.3-27.5m180.9 16.1c-2.3 6.4-3.6 10-4 10.2-.3.2-5.2-1.5-8.2-2.8l-2.2-1 3.1-2.5a54 54 0 0 1 12.9-9l-1.6 5.1m26 4.7c.6 2 .8 18.7.2 19.5-.4.8-13-.7-14-1.6-.3-.3 1.2-2.7 7-11 2-2.9 4.2-6.2 4.8-7.3 1.2-2.4 1.3-2.4 2 .4m27.4.5l1.3 5.8c.5 2 .7 4 .7 6.4 0 4.4 0 4.5-5.5 11l-8.6 10.8c-27.8 35.8-52.6 57.2-104.4 90.2-53.8 34.4-70.3 42.8-133.7 67.8-6.6 2.6-15.4 6.1-19.5 7.9-9 3.7-11 4.4-25.1 9-12.3 4.1-18 5.8-25.6 7.4l-10.1 2.3c-8.3 2.1-10.3 2-15.3-1.1l-4.5-2.7c-1.4-.7-2-1.2-1.7-1.3l4.8-1.3c17.5-4.6 36.1-10.2 62.7-19.1 8-2.7 17.8-6 22-7.2 4-1.4 10-3.6 13.2-5 3.2-1.4 8.4-3.5 11.4-4.6a441 441 0 0 0 74.7-36.2c6.4-3.9 13.8-8.2 16.5-9.6 2.7-1.4 9-5.1 14.2-8.2l14.2-8.3c6-3.3 8-4.5 16.3-10.2 3.6-2.4 8.3-5.5 10.4-6.6 3.1-1.8 5.6-3.7 13-9.7 25.8-21.2 36.5-31.7 49.5-48.5 19-24.6 21.6-28.5 25.9-37l2.5-4.8.7 2.8m-40.7 2.7c2.6 1.2 2.8.8-1.3 3.8-4.6 3.4-5 3.3-3.1-1l.8-2.6c.2-1.5.7-1.6 3.6-.2m-31.7 3.9a76.5 76.5 0 0 1-4.8 11.3c-.6.5-4.3-.3-7.4-1.6l-2.6-1 5-3.8 7.5-5.9c3-2.5 3.3-2.4 2.3 1m33 2.8a683 683 0 0 0-4.4 7c-8.1 13-10.6 14.8-49.1 35.8-20.9 11.4-29 16-37 21.3l-3.8 2.5-.7-.7c-1.9-1.8-3.6-4.3-3.2-5 .3-.6 2.5-2 6.3-4.2l7.8-4.5 15.8-9c18.6-10.3 38.4-23 52.8-34.1 2.3-1.8 17-12 17.4-12l-1.8 3m26.3-1.5l2.3 1.4c.4.3-5 8.6-5.4 8.4-.5-.3 0-11.1.5-11.1l2.6 1.3m-48 8.8c2.4 1.1 2.5 1-1 3.6l-3.3 2.5-.8.8v-.7c0-.4.3-2.3.8-4.2 1-3.8.6-3.6 4.2-2m63.3 14.3c-.6 8.7-.8 9.3-4.7 12.3-4.9 3.7-6.1 5.7-6.6 10.6-.6 5.7-1.7 6.8-8.4 8.5-8.7 2.2-10.2 3.8-14.8 15.9-3.5 9-5.3 10.8-12.3 11.3-2 .2-4 .5-4.6.8-3.8 1.6-11.5 12-14.3 19.4-1.5 4-7.7 6.2-15.7 5.7-5.9-.4-10.3 2.9-16.8 12.2-5.9 8.4-8.2 9.8-17.6 10.7-9.7 1-11.3 2-17.4 10.6-6.3 9.2-9 10.8-14.7 9-5.3-1.6-10.4.7-17.2 8.1-8.8 9.5-10.8 10.6-17.8 10.4l-6.6-.1h-2.5l-4.2 2.1a39.2 39.2 0 0 0-10.3 7c-7.8 6.7-12 8.1-17.6 6.2-6-2-9.3-.5-18.5 8-9.8 9-13.6 10.5-25.3 9.9a18.1 18.1 0 0 0-17.4 7.9c-2.6 3.4-5.8 4.1-12.5 3-7.1-1-9.2-.6-13.6 3.2-6 4.9-8.2 5-17.3 1.2l-6-2.4c-1.8-.5-3-.1 15-4.6 27.8-7 30.5-8 54.2-18.1 4.4-2 13.7-5.6 20.7-8.3a433 433 0 0 0 33.7-14c54-25 50-22.7 105.4-59 43.6-28.5 68.2-50.2 93.3-82.4l9.7-12.4 2.9-3.5v3c.1 1.6 0 5.2-.2 7.8m-100-5.5l-2.3 5.8c-1.3 3.4-1.3 3.4-7.1 2.7l-4.7-.6c-.2-.2 3.3-2.7 8.1-6a58 58 0 0 0 5.8-4.2c1.5-1.5 1.5-1.2.1 2.3m49.6 9.5l-.2 9.2-.2 3-2-.1c-1 0-3.3-.5-5-1-1.9-.5-3.9-1-4.5-1-2 0-2 0 6.6-11.2 5.7-7.6 5.3-7.6 5.3 1m-33.8-5.1l3.8 1c1 0 .4.7-1.9 2.3-2.2 1.5-7.8 5.2-8.3 5.4-.5.2.5-5.8 1.5-9.3.2-.6 1.3-.4 4.9.6m25.7 4.3c0 .1-1 1.6-2.3 3.2-10.8 14.5-28.4 30.3-55.5 49.8l-7.6 5.4-1.8-2c-1-1-2.9-3.3-4-5l-3.5-4.8c-1.5-2.1-1.7-1.9 1.9-4.4a317 317 0 0 1 39.9-23.5 327.2 327.2 0 0 0 30-17.5c2-1.3 2.9-1.7 2.9-1.2m24 .8c3.1.4 3.1.2.4 3.7l-3.8 5a21 21 0 0 1-1.7 2l.7-9.5c.2-1.9.1-1.9 4.4-1.2m-88.6 5c0 .3-.7 1.8-1.4 3.3a37 37 0 0 0-2 4.5c-.7 2-1.4 2.3-5.5 1.8-1.6-.2-3.3-.3-4-.2l-1 .2 1.7-1.6c1-1 3.6-2.8 5.9-4.3a70 70 0 0 0 5-3.3c1-.9 1.3-1 1.3-.3m122 4.6a48 48 0 0 1-6.7 20 243 243 0 0 1-22 25c-14.2 14-80.8 59.8-104.9 72-18.7 9.5-60.5 28-101.4 45-35.4 14.7-58.7 21.9-75.8 23.4-3.5.3-3.2-.2 2.1-4.1 4.7-3.5 5.2-3.5 16.2-2.9l4.3.3 2-1c1.5-.7 2.7-1.7 5.2-4.4 5.2-5.6 6.6-6 16.2-5.8 10 .3 12.9-.9 23-9.5 10.5-9 13.3-10.2 19-8.4 6 2 11.2.2 18.7-6.6 9.1-8.2 14.7-10.5 21.8-8.8 6.4 1.6 10.3-.4 18.6-9.6 7.9-8.7 11.4-10.4 17.2-8.5 6.2 2 9.6-.1 15.8-9.4 5.6-8.6 6.4-9.2 14.8-10.5 13.6-2.3 14.9-3 20.5-11 7.1-10.3 9.7-12.2 15.9-11.8 9.2.7 14.1-2.2 18.4-10.5 5.5-10.6 9.8-15 14.7-15 2.2 0 4-.5 7-2 5-2.2 6.5-4.3 9-12.4 3-10.1 4.5-11.7 12.4-13.4 6.6-1.4 9.4-4 10-9.3.3-3.8 1-5.3 4.4-8.6 3.1-3.1 3.4-3.3 3.6-2.2m-107.8.4l3.8.8c.5 0 .8 0 .8.2 0 .6-11 6.7-11.4 6.3-.1 0 .4-2 1.3-4.1 1.6-4.6 1.2-4.3 5.5-3.2m39 7.4c.4 1.4.5 10.7.1 12.6-.4 2.1-.1 2-6 1.3-4.4-.5-6.9-1-6.9-1.4a57 57 0 0 1 7-7.5c1.6-1.5 3.4-3.4 4-4.2 1.3-1.7 1.4-1.7 1.7-.8m-75 6.5c-.6 2.1-1.2 3.8-1.3 3.8-.5 0-1.3-1-2.6-3l-1.5-2.3 1.5-.9 3-2 1.6-1.1.1.9c0 .4-.3 2.6-.9 4.6m-10.3-3.6c-3.5 6.6-27 20.2-57.6 33.3-14.7 6.3-30 11.8-35 12.5l-1.4.2-.2-1.5c-.4-3.2-1-2.7 6.1-5.1 33-11 75.4-30.5 86-39.6 1.5-1.3 2.8-1.2 2 .2m3.7 4.8c.5.8 2.1 2.8 3.6 4.3 3 3.3 4.4 5.4 4.6 7.7.3 2.2-.8 1.8-9.8-3.4-2.1-1.2-4.6-2.5-5.6-2.9l-1.8-.7 1.7-1.7c1.6-1.6 5.7-4.8 6.2-4.8.2 0 .7.7 1.1 1.5m96.5-.5c1.8.5 1.9.4-.7 3-2.5 2.4-2.8 2.2-2.2-1.3.4-2.2.5-2.4 1-2.3l1.9.6m-74.6 0l1 .5-1.7 1.3c-3.6 2.7-6.3 3.7-6.3 2.5 0-3.3 3.9-5.6 7-4.2M221.6 180a80.7 80.7 0 0 1-2.3 16.9c-.6 0-13.4-8.4-17-11.2-.4-.2 1.1-1 7.2-4.3 3.5-1.7 7.5-4 9-5 3.3-2.2 3.3-2.2 3 3.6m7-3.5c1 .5 3.4 1.8 5.3 3l5.5 3c1.1.6 2 1.2 2 1.4 0 .8-6.5 5.7-12.6 9.4a284 284 0 0 0-5 3c-1.4 1-1.5-1.7-.2-11.7.4-2.5.6-5.6.6-7v-2.4l1.2.2c.6.1 2 .6 3.1 1.1m66.7 3.5c.3 3-1.2 11.8-2 11.9-.7 0-11-3.2-11-3.5l2.8-2.1c1.5-1 4.2-3.2 6-4.8 3.8-3.2 4-3.3 4.2-1.5m-47.8 4.2l1 1.4-2 2.3c-14.2 15.8-58.7 38.4-97.5 49.6-5.8 1.6-5.5 1.7-6-2.8 0-.4 1.6-1 9.2-3.6 22-7.4 51.2-20 64.1-27.9 22-13.3 27.4-16.9 29.2-19.7.7-1 .8-1 2 .7m63.3.5c2.7.4 2.7.5 0 2.7l-3.4 3c-1.8 1.4-1.9 1.4-1.9 0 0-2.6 1.3-6.4 2.2-6.2l3.1.5M203.9 190c2.7 1.6 12.9 8.5 13.5 9.1.6.6-1.6 1.9-10.6 6.4l-9.8 4.8c-.5-.5 2.8-22.6 3.3-22.4l3.6 2.1m46.3-1.2l1.9 2.6 1.2 2-.4 1.5c-1.4 4.6-2 5-7.3 5.4-7.3.5-7.8.8-13.6 8-4 5.1-5.3 5.9-11.5 6.4-5.6.6-7 1.3-10 5.7-2.8 4-4 4.6-10.8 5-6 .3-6.9.7-10.4 5a23.6 23.6 0 0 1-4 4l-1.4.9h-5.4c-6.4 0-7 .2-11 4.2l-2.5 2.6h-4.4c-5.4 0-6.7.5-11.3 4a31.6 31.6 0 0 1-3.4 2.4l-.7-2.7-.8-3.2c-.2-.4.4-.7 2.8-1.6l14-5.1a324 324 0 0 0 45.2-19.3c23.8-12 33.1-18 40.8-26.4 2.1-2.3 2.2-2.4 3-1.4m-53.8 6.7a72.5 72.5 0 0 1-2.3 12.7c-.2.3-.9-.1-10.6-6.6-7.2-4.7-7-4.4-4.6-5.2 1-.3 4.7-2 8.2-3.6 6.7-3.3 9.8-4.5 10-4 0 .1-.2 3.2-.7 6.7m78.2-1.5c0 1.8-4.1 14-4.8 14.3-.2.1-1.7-.3-3.2-.9-2.4-.9-4.7-1.5-8.3-2.3l-.8-.1 1-.9 5.8-3.8 7.3-4.7c2.6-1.9 3-2 3-1.6m-16.7 5.6c.9 2.4 2.4 1.4-18.5 12.4-16.6 8.7-33.4 17-42.7 21.2a875.7 875.7 0 0 1-49.5 20.7c-1-1 3.5-6.5 6.5-8 1.5-.7 2-.8 5.8-.8 5.9 0 6.2 0 9.8-3.6 4-3.9 4.2-4 11-4.2 6.4-.2 7.1-.4 9.3-3.2 4.7-6 5-6.1 11.9-6.5 6.2-.4 6.3-.4 12.4-7.4 2.5-2.8 3.5-3.3 7.3-3.3 6 0 8.5-1.4 13.3-7.4 4.2-5 5.3-6 8-6.2 9-.8 11.6-2 12.7-6l.3-1.2 1 1 1.4 2.5m-80.4 1.4a131 131 0 0 1 12.7 8.1l3 2.3-.8.5c-3.4 2.7-21.9 10.5-21.9 9.3 0-3.7 2.4-18.3 3.5-21 .4-1 .2-1 3.5.8m-6.8.5c-.4 4-2.5 18.9-2.7 18.9a65.8 65.8 0 0 1-14.7-14c0-.2 1.6-.9 3.7-1.5a128 128 0 0 0 12.3-4.8c1.4-.8 1.6-.6 1.4 1.4m117.8-1l3 .8-3.2 2.5a20.5 20.5 0 0 1-5.8 3.6c0-.1 2-7 2.4-7.5.2-.3.6-.3 3.6.5M148.4 210l-3.8 10.5c-1.8 4.8-3.1 8.2-3.2 8-.7-1.3-4.4-17-4-17.3 1-.6 10-3.2 11.4-3.3.3 0 .1.7-.4 2m5.2 1.1c2.5 1.7 13.1 12 12.8 12.4-.7.6-21.4 8-22.7 8-.7 0 .1-2.9 4.2-13.7l2.4-6.6c.7-2 .5-2 3.3 0m93 3.7l-1.7 5c-.6 1.6-1 3.2-1 3.6 0 1.1-.3 1-4-1-2-1.1-4.7-2.4-6-2.9l-2.3-.8.7-.6c.4-.4 3.3-1.9 6.4-3.4 3.1-1.5 6.3-3.2 7-3.8l1.5-1.1v1.3c.1.8-.1 2.3-.6 3.7m14.1 1.2l3.4 1.3 1.5.6-.7.6c-.8.7-10.6 6.6-10.8 6.6-.8 0 0-3.7 1.4-6.6 1.8-3.6 1.9-3.7 5.2-2.5M137 220c.9 2.3.2 3.4-1.7 2.5-1-.5-1-1.3.4-2.8.6-.8 1-.7 1.3.2m85.6 3.1c0 .7-1.8 5.7-4.2 11.6l-2.8 7.1-.8-.7-4.6-3.6c-4.4-3.4-5.8-4.6-5.8-5 0-.1 2.8-1.7 6.3-3.4a240 240 0 0 0 8.8-4.6c2.5-1.4 3-1.7 3-1.4m-88.9 1.6c1.4.4 2.9.8 3.4.8.7 0 1 .2 1.1.9l1 3.5c.9 3.2 1 3.1-2.9 1.3l-3.3-1.6-.6.8c-.8 1-2.3 4.7-3.2 7.7-.7 2.4-.7 2.4-2.3 3.2-.9.4-3 1.6-4.6 2.7-5 3.3-7 3.5-11.9 1.2-1.6-.7-3.6-1.4-4.4-1.4l-1.4-.2-.8 1.8c-.9 2-2.1 5.8-2.7 8.5l-.4 1.5-4 2.3a17 17 0 0 1-4.4 2.2l-3.6-1.3a26 26 0 0 0-5-1.3l-2-.2-.4 1.8c-1.2 5.6-3.1 11-4.2 11.8-3.4 3-7.7 3.7-16.3 2.5-3.5-.4-4-.4-4.3 0a26 26 0 0 0-2.3 8l-.6 4.1-1.7.8c-.9.5-3.5 1.5-5.8 2.3l-4.1 1.4-5.7-.8-6.4-.8c-.8 0-1.6 1.6-1.6 3.3 0 2-.4 3.6-.8 3.6l-3 .7c-3.4 1-3.5-.3-1-8.7l1.2-5c.3-1.8 0-1.8 6.1-.2 11.7 3 15.2 2.6 16.3-1.7a45.3 45.3 0 0 1 5.1-14.3l1.3-2 3.2.3a63 63 0 0 1 14.9 2.7c.4 0 1.8-3.6 3-7.4 2.8-9.2 4.6-10.2 14.6-8 5.2 1.2 4.6 1.6 6.5-4 3.8-10.4 7.6-11.8 21.6-7.7 5 1.4 4.3 2 7-4.9 2.2-5.7 3.3-7.8 5-9.6 1.6-1.6 1.3-1.6 4.4-.6m-9.8 4c0 1-4.2 9.3-4.7 9.1l-4.3-1.5c-4.7-1.6-4.5-1.4-2.7-2.8 3.8-2.8 11.7-6 11.7-4.8m110.7 4l2.4 1.3c1.2 0 0 1-4.9 3.9-4.3 2.6-4.6 2-1.7-4 1.3-2.9 1.4-2.9 4.2-1.2m-98 1.7c1.7.8 1.6.7 1 1.5-.8.7-5.5 3.2-5.8 3 0-.2.2-1 .6-1.9l.8-2.3c.4-1.4.4-1.4 1.3-1.2.5.1 1.4.5 2.1.9m57 5c-.2 1-1.4 4.4-2.5 7.4l-2.3 6.5-.3 1-3.7-2.5-7-4.3-3.5-1.9 3-1.5c1.6-.8 5-2.3 7.8-3.4 2.6-1 5.7-2.4 6.8-2.9 2.4-1 2.4-1 1.8 1.5m-53-1l.9 2.3.4 1.8-1 .8c-2 1.5-6.3 4-10.8 6.2a153.6 153.6 0 0 0-34 20.3c-2.5 2.3-3.2 2.7-7.3 3.4-3.9.7-7.4 1.9-16.4 5.4a81.5 81.5 0 0 1-6.5 2.3c-.2-.2 17.4-12 26.6-17.8 9.2-5.7 13-7.8 26.8-14.7l16.3-8.5c3.7-2.2 4.2-2.4 5-1.5m-46.6 6l-1 2.3c-.5.9-.8 1.8-.8 2 0 .7-.7.7-3.5 0-3.4-.7-3.4-.6 1.4-3.2 4.4-2.3 4.3-2.3 4-1.2m49 3.5a51.6 51.6 0 0 1 1.6 7.6c.4 1.2-43.5 15.6-45.5 15-.4-.2 8.4-6 14.4-9.6 7.9-4.5 28-14.7 28.9-14.4l.7 1.4m-33.5 0c2.9.8 3 1 1.3 2a77 77 0 0 1-6.8 3.4c-.4 0 0-1.5.9-3.8 1.1-2.9 1-2.8 4.6-1.7m95.5 2.9c1.3.6 2.3 1.2 2.3 1.4 0 .6-6.7 4.3-7 4-.2-.2.2-1.5.9-3l1.1-3.2c0-.5 0-.5 2.7.8m-42.2.1c.2 1.3-4.4 15.6-4.9 15.6-.9 0-11.8-8-11.8-8.5 0-.2 2-1.1 4.5-2.1s6.2-2.6 8.1-3.6c4-1.9 4-1.9 4.1-1.4m-90.6 7.7c-1.2 3.6-2.4 5-4.2 4.9-1.5 0-8.2-1.5-8.5-1.8-.3-.3 2.3-1.7 6.7-3.7 2.4-1.1 4.9-2.3 5.4-2.7l1-.6.2.9c0 .5-.2 1.9-.6 3m15.2 2.7l2.1.6-.7.7c-.4.4-2.2 1.7-4 2.8-3.7 2.4-3.8 2.4-2.2-2.2 1.1-3.4.6-3.2 4.8-2m90.3 2.3a22 22 0 0 1 3.3 2.5c0 .4-2.7 1.8-6.5 3.4l-4.1 1.8c-.4.1-.4 0-.2-.4l1.8-5.1c1.9-5.2 1.5-5 5.7-2.2m-45.6 4.4a107 107 0 0 0-3 9.2c-.2.3-8-4.2-12.5-7.2l-1.9-1.3 6-2c7.4-2.5 12.8-3.9 12.9-3.4 0 .2-.6 2.3-1.5 4.7m-84.3.1l-2.2 6.6-2 6.4h-2.6c-3.6 0-11-1.4-11.8-2.2-.5-.5 9.4-6.6 16.2-10 2-1 2.4-1.1 2.4-.8m55.3 5c-.3 2.1-1.3 4.6-4 10a99.2 99.2 0 0 0-2.7 5.8l-.4 1-1.3-1-5.4-3.7a78.4 78.4 0 0 1-9.2-6.7c0-.2 6.3-2.2 12.7-3.8a188.4 188.4 0 0 0 10.2-3c.2 0 .2.6.1 1.4m42.2 1c4 2 6.7 4 6 4.4-1.5 1.1-3.5 2-7.3 3.5l-4.1 1.5v-1.6c.2-1.5 3.2-8.7 3.7-8.7l1.7.9m-80.8 2.7l2.8.3-1.2.9c-.7.4-2.4 1.8-3.9 3-2.7 2.3-5.8 4.1-6.2 3.7-.1-.1 0-1 .3-2.2l1.1-4.2.5-2.3 2 .2 4.6.6m4 7.6L66 289c-3.3 6.3-5.7 10.6-6.6 11.6l-.8 1-4.2-3a122 122 0 0 0-7-5l-2.8-1.7 1.9-1.1c2.5-1.6 5-2.6 12.9-5.2 3.7-1.2 7.3-2.4 8.1-2.8 1.8-.8 2.2-.4 1.3 1.1m45.6 0a57 57 0 0 1 7.3 5.5c.3.4.1.6-1.4 1.2-3 1.1-9.8 3.4-12.1 4l-2.2.7.2-.7c.4-1.3 5.7-11.8 6-11.8l2.2 1m-93.5 1.7c0 .8-.5 3-.9 5l-1 5c-.5 3.3-6.3 3.5-8.7.3l-.6-.8.7-1.5c.8-1.4 3.4-4 7.7-7.4 3-2.5 3-2.5 2.8-.6m13 5.8c2.3.5 2.2.8-.7 1.8-2.1.7-2.4.6-2.4-.5 0-1.8.1-1.8 3.1-1.3m44.2 2.3l4 3.3a30.8 30.8 0 0 0 5.8 4 34 34 0 0 1-9.6 4l-7.3 2.3-1.6.6.5-1.4c.5-1.5 6-12.6 6.4-13.2.5-.5.5-.5 1.8.4m-44.5 2l-1.3 2.4-3.7 8-3.6 7.7-1.1 2-1.5-1.3a43.9 43.9 0 0 1-10.7-13.6l2.4-.3a44 44 0 0 0 10.8-2.6c6-2 9-2.9 8.7-2.4m12.9 10.6l4.3 4 2.3 2.4-1.2.4c-1.7.5-15.3 4.3-15.4 4.2l3.2-6.9 3.2-6.7.8.5 2.8 2.1"/><path fill="#f1e223" d="M371.4 74c-.3 0-.7.7-1 1.8-.8 2.9-2.7 7.2-6.3 14a90.3 90.3 0 0 0-3.2 6.3l2.2.4 5.1 1.3 4.3 1.2 1.2.2-.1-10c-.2-11.4-.8-15.6-2.2-15.3m-7.3 2a50.4 50.4 0 0 0-8.6 4.7 33 33 0 0 0 9.2 1.5c.6-.7 3-6.7 3-7.2-.1-.6-.4-.5-3.6 1m-20.1 12c-9.3 6.3-8.9 5.5-3.6 7.2 2.4.8 4.9 1.5 5.5 1.5l1.2.1 1-2.8c2.3-5.8 3.7-11 3-10.8l-7.1 4.8m-15.4 10.8c-2.7 1.8-7.5 5.4-10.7 8.1l-1.7 1.5 2 .9 5 2 3.1 1 1.5-4c2-4.9 4-11 3.8-11.2l-3 1.7m26 7.3c-.7 1.3-2.7 4.3-9.2 13.7-3 4.4-3 4.6-2.4 4.8 1.6.6 8 1.5 10.6 1.5h2.8l.2-8v-8.8l-.5-2.7c-.4-2.1-.7-2.2-1.6-.5m-15.6 6c-1.5 4.7-1.5 4.6 2.5 1.7l3.4-2.7c0-.2-4.5-2.2-4.7-2.2l-1.2 3.2m-29.8.7a233 233 0 0 1-7.2 5.7l-5.1 3.9 1.8.8c2 .8 6 2 7.2 2a41 41 0 0 0 6-13.3c.2-1.2-.4-1-2.7 1m58.8 1.7c.1.5 0 2.5-.2 4.6-.1 2-.2 4.2-.1 4.7l.2 1 1-1.5c1.2-1.5 3.5-5.4 3.8-6.1.1-.4-2-2.1-3.8-3-1-.5-1-.5-.9.3m-49.3 11.3c-.4 1.6-.7 3.3-.7 3.8v.9l1.3-1.2c.8-.7 2.2-1.9 3.3-2.6 2.4-1.7 2.4-1.6-.2-2.8-3-1.4-3-1.4-3.7 1.9m-33.2 5.1c-.7.6-3.6 2.7-6.6 4.7-5.6 3.7-6.8 4.7-6 5 .7.2 6.4.8 8 .8h1.5l1.9-4.8 2.2-5.8c.5-1.2.6-1.2-1 .1m44.5 10.6c-7.3 9.7-7.9 10.5-7 10.5l5.1 1.1c4.6 1.2 6.8 1.4 6.8.7l.3-6.6c.3-5.9.2-12.1-.3-12l-5 6.3m-33.5-2.4l-1 4.8-.1 1.7.8-.5 4.3-2.8 4.5-3.1c1.1-1 1.5-.8-3.2-2-5.2-1.3-4.5-1.6-5.3 2m51 3.3c-.3.6-1 9.6-.8 9.8l1.6-2a1456.3 1456.3 0 0 1 5.5-7.4c0-.8-6.1-1.2-6.4-.4m-85.8 5.2l-5.1 3.4c-5.2 3.3-7.8 5.5-6.3 5.2.5 0 2.3 0 4 .2 3.9.4 4.4.3 5-1.4a32 32 0 0 1 1.9-4.2c1.7-3.2 1.9-4.3.5-3.2m10.1 7.7c-.7 2-1.2 3.7-1.1 3.8a48 48 0 0 0 8.7-4.4l2-1.4-3.3-.8c-5.2-1.3-4.8-1.5-6.3 2.8m37.8 10a67.7 67.7 0 0 0-5.9 6.5c0 .6 11.5 2.3 12 1.8.8-.7 1-7.9.4-13-.3-1.9.3-2.3-6.5 4.7m-68.5-4.2c-.3.3-1.4 1.2-2.6 1.9-2.7 1.6-2.7 1.4-1.4 3.4 2.7 4.2 2.6 4.2 3.8-.4.9-3.5 1-5.8.2-4.8m-9 5.4c-1.9 1-6.8 5.2-6.4 5.5l2.6 1.3c1.4.6 3.8 1.9 5.3 2.8 3.2 1.8 6.9 3.7 8 4 2.4.8.2-4.2-3.7-8.4a40.9 40.9 0 0 1-3.6-4.4c-1-1.5-.9-1.5-2.2-.8m96.1 1.2c-.3 1.3-.4 3.6-.2 3.6.4 0 4-4 3.8-4.1-.4-.3-2.3-1-2.8-1-.2 0-.6.7-.8 1.4m-77-.4c-1 .9-1.7 2.2-1.7 3.4v1l1.2-.5c2.4-1 6.5-4 5.8-4.2-1.3-.6-4.4-.4-5.2.3m-30.8 8c-1.4 1.2-6 3.8-11.6 6.7-6.1 3.2-6.5 3.4-5.7 3.9l5.5 3.8c5 3.6 10.7 7.1 11 7 .4-.5 1.7-11.6 1.8-16 .2-6.4.2-6.4-1-5.4m71.3 5.9a137 137 0 0 1-9 7c0 .3 9.2 3.2 10.3 3.3.8.1 1.6-3.1 2-8.8.4-4.4.2-4.5-3.3-1.5m14.7 5.6a454 454 0 0 0-.8 3.3c-.2 1.2.4 1 2.7-.9 3.6-2.9 4.5-3.8 4.2-4a31 31 0 0 0-5.3-1 9 9 0 0 0-.8 2.6m-112.6 3l-7.5 3.6a65.7 65.7 0 0 1-8.7 3.8c0 .2 16.4 11.1 16.6 11a88 88 0 0 0 2-12l1-6.9c.2-1 0-.9-3.4.5m76.9 6.6l-8.3 5.4-4.6 3 2.6.5a55.5 55.5 0 0 1 9.7 3l1.5-4.2c1.5-4 3-9.3 2.8-9.8 0-.2-1.7.8-3.7 2.1m13.4 6.7l-1.1 3.8c0 .5 6.5-3.8 8.2-5.4.2-.2-1-.6-2.3-1l-3.1-.8c-.4 0-.8.7-1.7 3.4m-114.7-2.9a127 127 0 0 1-12.6 4.8l-3.4 1 1.9 2.4c3 3.7 8.6 8.9 12 11l.9.6.2-1.5 1-7.5c1.7-10.6 1.7-11.7 0-10.8m-25.2 9c-5 1.3-6.9 2-6.7 2.6a2926.2 2926.2 0 0 1 4.2 16.5l.8-2 5.6-15.7c1.2-3 1.4-3-3.9-1.5m102 1.8l-7.3 4c-7.3 3.5-7.3 3.5-5.4 4.1.7.2 3.3 1.4 5.8 2.7l4.4 2.3.2-1.2c.1-.6.9-2.8 1.7-4.9 2-5.2 2.2-8.9.5-7m10 7.2c-1.5 2.7-2.3 5.8-1.8 6.3.3.2 9.7-5.1 10.7-6.1.6-.6-3.7-2.4-6-2.7l-1.7-.1-1.3 2.6m-120 1.3c-1 1.3-1.3 2.7-.6 2.9.5 0 1 .3 1.3.4.4.1.5-.1.5-1.4 0-1.7-.6-2.6-1.2-1.9m84.4 4.7l-8.7 4.6-7.2 3.5 1 1c.7.8 10.2 8 10.3 8l6.2-16c.7-2.5.7-2.5-1.6-1.1m-99.8 5c-3.1 1.2-8.6 4.3-9.2 5.2-.2.3 2.3 1.2 8 3.1.3.1.5 0 .5-.3 0-.2.8-2 1.8-3.8 2.9-5.5 2.9-5.6-1.1-4.1m110 4.6c-1.1 2.5-2 5.3-1.7 5.5.1.2 6.6-3.7 7.7-4.5l.7-.6-2.2-1.3c-3.4-2-3.2-2-4.6 1m-97 .9l-.9 2c-.6.8-.6 2.2 0 1.7.3-.3 1.3-.8 2.3-1.3 3.3-1.5 3.6-2.2 1.4-3-2.2-1-2.4-1-2.9.6m59.5 2.6l-6.9 3-8.7 3.7-2.6 1.3 3.4 1.8c3.7 2.1 6.1 3.6 8.5 5.4 1.8 1.3 2 1.4 2 .9l2.2-6.2c3.4-9.3 3.7-10.8 2.1-10M90 245.6c-1.9 1-3.5 2-3.5 2.2 0 .2 3.9 1.2 4.8 1.2.3 0 1.7-2.6 2.7-5 .2-.5-.3-.3-4 1.6m15.2 3.7c-.7 2-1 3.5-.7 3.5.4 0 7.3-3.7 7.3-4 .1-.3-3.8-1.7-5-1.7-.7 0-.9.3-1.6 2.2m97.4.9a83 83 0 0 1-1 2.4c-1.4 3.5-1.4 3.3-.3 3a28 28 0 0 0 5.8-3.6 14 14 0 0 0-4.1-2.4l-.4.6m-43.7 2c-1.8.9-5.4 2.5-8 3.5l-4.8 2 3 2.3c4.6 3.5 8.7 6.2 9 5.9.5-.5 5-14.3 5-15.2 0-.3-1 0-4.2 1.5m-87 3l-4.8 2.4c-2.4 1-5 2.3-6 2.8l-1.6 1 1.8.3c1 .3 2.9.6 4 1 3.9.8 4.3.7 5.5-1.2 1.9-3.2 2.6-7.4 1.1-6.3m11 7.5c-1.4 4.3-1.3 4.4 2.1 2.2l3.6-2.5.7-.7-2.2-.7c-3.2-1-3.1-1-4.1 1.7m90.5-.5a576.5 576.5 0 0 0-3 8.1c-.3.7-.3.7 1.2 0a69 69 0 0 1 4-1.8c1.5-.6 3.3-1.5 4-2l1.5-.9-2.9-2c-4.4-3-4.2-3-4.8-1.4m-43.9 1.6c-4.4 1.1-14 4.3-14 4.6 0 .5 12.6 8.2 13.4 8.2.2 0 .5-.8.8-1.8.2-1 .9-3.2 1.5-4.8 2.2-6 2.5-7.2 2.1-7.2l-3.8 1M44 269.5c-4.7 2.4-6.5 3.5-11.1 6.5l-3.4 2.2 1 .4c2 .8 7.2 1.7 10.2 1.6h3.1l1.8-5.2 2.4-7.6-4 2m56.9 2.7c-1 .4-4.6 1.4-7.9 2.2-7.6 2-12.3 3.5-12.3 3.8 0 .3 3.4 2.8 8.6 6.2l5.5 3.9c1.3 1 1.7 1 2-.3.1-.5 1.3-3 2.5-5.5a35 35 0 0 0 4-10.1c0-1 0-1-2.4-.2m41.4 4c-1.3 2.7-2.4 6.2-2 6.5.3.3 8.4-3 10.4-4.1l1.2-.8-.7-.6c-1-.8-6.7-4-7.1-4-.2 0-1 1.3-1.8 3m-84.8 3.3l-1.2 4.4c-.3 1.1 3.6-1 6.3-3.6l2.8-2.2c1.7-1.4 1.9-1.2-2.8-1.8l-3.4-.5c-.6-.2-.8.2-1.7 3.7m9.2 3.8c-1 .5-4.6 1.7-8 2.8a57.5 57.5 0 0 0-12.3 5l-1.5 1 2.8 1.6c1.5 1 4.6 3.1 6.8 4.8l4.2 3.1 1.5-2.4c.9-1.3 3-5 4.6-8.2l3.8-6.9c1.2-1.7.8-1.9-1.9-.8m42.6 5.1c-3.2 6.5-3.3 6.8-2 6.5l12-4 2.8-1-2-1.6a27.7 27.7 0 0 0-8-5.1l-2.8 5.2m-89.5-3.5c-.4.5-2.2 2-3.9 3.3-3.2 2.4-4.6 4-5.6 5.8-1.2 2.5 3.6 4.9 7.2 3.6 1-.3 1-.5 1.7-3.9l1.1-5.7c.3-1.2.5-2.5.4-3v-1l-.9.9m11.3 7.5c0 .8.2 1.1.4 1l2.3-.7c2.1-.6 1.9-.9-1.1-1.3l-1.6-.2v1.2m43.2 5.1c-2 3.9-4.6 9.6-4.6 10l3.2-1 7.2-2.3c2.3-.7 4.8-1.7 5.8-2.2l1.7-.9-1.5-.9c-.8-.5-3-2.1-4.7-3.6a74.4 74.4 0 0 0-4-3.1l-.8-.6-2.3 4.6m-47.7.1c-7 2.3-10 3-12.8 3.2h-2l.7 1.6c1.7 3.3 10 13 11.2 13 .3 0 3.1-5.5 5-10.1a159 159 0 0 1 3.1-6.5c1.9-3.7 2.2-3.7-5.2-1.2m15.6 7.6a376.4 376.4 0 0 1-5.3 11.7c.1.1 15.5-4.2 15.8-4.4.3-.3-8.9-8.6-9.7-8.6l-.8 1.3"/><path fill="#132b73" d="M383.2 130.9c-1.5 1.9-6 7.5-9.7 12.4-25.1 32.2-49.7 54-93.3 82.5-51.6 33.7-54.4 35.3-86.6 50.2l-18.8 8.7a433 433 0 0 1-33.7 14c-7 2.7-16.3 6.4-20.7 8.3a249.2 249.2 0 0 1-54.2 18c-18 4.6-16.8 4.2-15 4.7l6 2.4c9 3.9 11.4 3.7 17.3-1.2 4.4-3.8 6.5-4.2 13.6-3.1 6.7 1 9.9.3 12.5-3.1 4.7-6.2 9.5-8.4 17.4-8 11.7.7 15.5-.8 25.3-9.8 9.2-8.5 12.6-10 18.5-8 5.6 2 9.8.5 17.6-6.2 5.1-4.3 5.8-4.8 10.3-7l4.2-2.2h2.5l6.6.2c7 .2 9-1 17.8-10.4 6.8-7.4 11.9-9.7 17.2-8 5.8 1.7 8.4 0 14.7-9 6-8.8 7.7-9.8 17.4-10.7 9.4-.9 11.7-2.3 17.6-10.7 6.5-9.3 11-12.6 16.8-12.2 8 .5 14.2-1.8 15.7-5.7 2.8-7.4 10.5-17.8 14.3-19.4.6-.3 2.7-.6 4.6-.8 7-.5 8.8-2.2 12.3-11.3 4.6-12.1 6.1-13.7 14.8-16 6.7-1.6 7.8-2.7 8.4-8.4.5-4.9 1.7-6.9 6.6-10.6 3.2-2.5 3.4-2.8 4-5.2.5-2.8 1-11 1-14.9l-.1-3-2.9 3.5m-136 59.3c-12.3 13.4-45.5 31-86 45.7-6 2.2-12.3 4.5-14 5-2.4 1-3 1.3-2.8 1.7a48.7 48.7 0 0 1 1.5 6s1.6-1 3.4-2.5c4.6-3.5 5.9-4 11.3-4h4.4l2.5-2.6c4-4 4.6-4.2 11-4.2h5.4l1.4-1c.9-.5 2.6-2.2 4-4 3.5-4.2 4.3-4.6 10.4-5 6.8-.3 8-.9 10.8-4.9 3-4.4 4.4-5.1 10-5.7 6.2-.5 7.5-1.3 11.5-6.4 5.8-7.2 6.3-7.5 13.6-8 5.4-.4 5.9-.8 7.3-5.4l.4-1.5-1.2-2c-2.7-4-2.4-3.9-5-1.2"/><path fill="#663e1c" d="M373.8 96.2c0 1.7 0 2.3.1 1.5v-3c0-.8-.1-.1-.1 1.5m-17 15.2c0 .7 0 1 .2.6v-1.3c-.1-.3-.2 0-.2.7m0 3.5c0 .9 0 1.2.2.7V114c-.1-.4-.2 0-.2.9m-163.7.2c1.3 1.4 1.6 1.7 1.6 1.4l-1.5-1.5-1.5-1.4 1.4 1.5m-72 5.6c0 .8 0 1 .1.7V120l-.1.7m235.4 3c0 1.3 0 1.9.2 1.1v-2.5c-.1-.6-.2 0-.2 1.4m-24.7 10.5l-1.5 1.7 1.6-1.6 1.6-1.6c0-.2-.2 0-1.7 1.5m-52 7.4h1.3l-.7-.1c-.7 0-1 0-.5.1m73.2 21.5l-1.2 1.3 1.3-1.2a14 14 0 0 0 1.3-1.4c0-.2-.2 0-1.4 1.3m-16.9 4l-3.1 3.3 3.2-3.2a88.7 88.7 0 0 0 0 0m-108.6-1.6l-1.2 1.3 1.3-1.2c1.3-1.2 1.5-1.4 1.3-1.4l-1.4 1.3m79.3 1.9l-.9 1 1-1c1-.8 1.2-1 1-1-.1 0-.6.4-1 1m37.1 4.8l-3.6 3.7 3.7-3.6a117.7 117.7 0 0 0-.1 0M329 174l-1 1 1-1c1-.8 1.2-1 1-1l-1 1m6.4 6.7l-1 1.2 1.1-1.1c1.1-1 1.3-1.3 1-1.3l-1 1.2m28.7 6.9l-1 1.2 1.1-1.1c1.1-1 1.4-1.3 1.1-1.3l-1.2 1.2m-120 2.2l-1.7 1.8 1.8-1.7c1.7-1.6 2-2 1.7-2l-1.8 1.9m-73.6 10.7c0 .6 0 .9.1.6V200v.5m50.4 16.5h1c.4 0 .1-.1-.5-.1s-.8 0-.5.1m-39.4 20.4h1.3l-.7-.1c-.7 0-1 0-.6.1m-13.5 5.2l-1 1 1-.9 1-1c0-.3-.2 0-1 1m56.4 29.7l-1 1 1-1c.6-.4 1.1-.9 1.1-1 0-.2-.3 0-1.1 1m-58.8 30h1.2c.3-.2 0-.2-.7-.2s-1 0-.5.1m-72.6 28.2c.5.1 1.2.1 1.6 0l-1-.1c-.8 0-1 0-.6.1"/><path fill="#115625" d="M376 79.7V82l.1-2c.1-1.8.2-2 .6-1.6.4.3.4.3 0-.3-.8-1-.8-1-.8 1.6m.4 5.4c0 .7 0 1 .1.6v-1.3l-.1.7m.3 4.9c0 1 0 1.3.1.8a7 7 0 0 0 0-1.7l-.1.9m5.3 6.9c0 1 0 1.5.1 1v-2 1m-5.4-.2c0 .7 0 1 .1.6V96l-.1.7M360 99.3a7 7 0 0 0 1.7 0l-.9-.1h-.8m-1 7.5c0 .7 0 1 .2.6V106c-.1-.3-.2 0-.2.7m6 4.3c0 .6 0 .8.1.5v-1c0-.4-.1-.1-.1.5m-5.6 5.8v2.9a104.7 104.7 0 0 0 0-3m15.1-3c-.5.4-.7.7-.6.7.2 0 .6-.3 1-.8 1-1 .8-1-.4 0m-9.5 3c0 .8 0 1.1.1.7V116l-.1.7m-.4 3.8c0 .6.1.8.2.5v-1c0-.4-.2-.1-.2.5m-.2 5.5c0 1.7 0 2.4.1 1.4v-3c0-1-.1-.2-.1 1.6m-5.4.1c0 .6 0 .9.1.6v-1.1.5m-.5 2.8c0 .2-.7.4-2.1.4h-2.1l2 .2c1.9 0 3-.2 2.4-.8 0 0-.2 0-.2.2m-.6 8.4l-1.1 1.2 1.2-1 1.1-1.3c0-.2-.2 0-1.2 1.1m-89.4 6.3h2.6c.8 0 .2-.1-1.3-.1h-1.3m14 1.1l-1.3.2h1.2c.6.1 1.2 0 1.4-.2v-.3l-1.3.3m61 4.4c0 1.8.1 2.6.2 1.6v-3.2c0-1-.1-.2-.1 1.6m-3.3 10.9l-1 1.2 1.1-1.1 1.2-1.2c0-.2-.3 0-1.3 1.1m-87.1-.6l-7.7.2h7.8c5 .1 7.7 0 7.7-.2v-.2s-3.6.2-7.8.2m-4.8 4c-.1.2.4.2 1 .2.7 0 1.3-.2 1.3-.3 0-.2-2.2 0-2.3.2m70.4 5.4c0 2 0 2.7.1 1.8a34.4 34.4 0 0 0 0-1.8m5.9 1.4v1c.2-.7.2-1.7 0-2.2v1.2m-100.7 7c0 1.1 0 1.6.2 1v-2c-.1-.6-.2-.1-.2 1m96.2 1.4a21.8 21.8 0 0 0-2.2 2.4s1.2-1 2.5-2.4l2.2-2.3-2.5 2.3m-7.2-1.8h3c.8 0 .2-.1-1.5-.1-1.6 0-2.3 0-1.5.1m-73 8.3l-.9 1 1-.9 1-1c0-.2-.2 0-1 1m38 6c0 .2.6.2 1.3.2.7 0 1.3-.2 1.3-.3h-1.3c-.7 0-1.2 0-1.2.2m23.9 1c0 .6 0 .8.1.5v-1c0-.4-.1-.1-.1.5m-79.6 1.8c0 1.3 0 1.9.1 1.2V193c0-.7-.1-.1-.1 1.1m32 13.4h1.1-1m-97.4 6.9l1.2 1-1-1a6.9 6.9 0 0 0-1.1-1.1c-.1 0 .3.5.9 1m6 6.2a26 26 0 0 0 3 2.9c.1 0-1.1-1.4-2.8-3l-3-2.9 2.9 3m63.4.8l-1 1.2 1-1 1.6-1.1c.4-.2.4-.2 0-.2-.3 0-1 .5-1.6 1.1m-112.4 25.4h1.6l-.9-.1c-.9 0-1.2 0-.7.1m63.9 13.7l1 1 1 1-1-1c-.8-1-1-1.3-1-1m5.5 3.6h1.4c.4-.1.1-.2-.7-.2-.7 0-1 0-.7.2m-128.8.3H57c.5-.1 0-.2-1-.2s-1.5.1-.9.2m9 9.4h1.3c.3-.1 0-.2-.7-.2s-.9.1-.5.2M28 292.2c0 .7 0 1 .1.7v-1.4c0-.4-.1-.1-.1.7m-6.3 2.8c0 .6 0 .8.1.5v-1c0-.4-.1-.1-.1.5m38.3 8.8l-1.2 1.4 1.3-1.3c1.2-1.1 1.5-1.4 1.2-1.4l-1.3 1.3m-29 14h1.2c.3-.1 0-.2-.7-.2s-1 .1-.5.2"/><path fill="#928635" d="M373.8 88.9a62 62 0 0 0 0 0m-244.8 2l-1.3 1.4 1.4-1.2c1.2-1.2 1.5-1.4 1.2-1.4L129 91m59 19.3l1.3 1.3-1-1.3a8.7 8.7 0 0 0-1.4-1.2l1 1.2m-66.8 5.5c0 2.1 0 3 .1 1.8a38.3 38.3 0 0 0 0-1.8m246.6 0c0 1 0 1.5.1.9v-1.9 1m-11.4 4c0 .9 0 1.3.2.8a7 7 0 0 0 0-1.7c-.1-.5-.2-.1-.2.8m-158.2 1c.6.7 1.3 1.2 1.4 1.2l-1.1-1.2a8.7 8.7 0 0 0-1.4-1.3l1 1.3m169.3-.3c0 .6 0 .8.1.5v-1c0-.4-.1-.1-.1.5m-246 4.8v-.8c0-.4-.1 0 0 .8m231.6 1H354.2h-1.1M121.7 130c0 .7 0 1 .2.6v-1.3c-.1-.3-.2 0-.2.7m213.5 7.6c0 .7 0 .9.1.5v-1.2l-.1.7m12 4.4l-.2.5c0 .3.1.3.3 0 0-.2.6-.4 1.1-.5l1-.1h-1l-1.2.1m-12 3.7c0 1.2 0 1.7.1 1v-2.2 1.2M295 145c0 .9.4 1.2.8.5.1-.2 0-.3-.1-.1-.2 0-.4-.1-.5-.5-.1-.7-.1-.6-.2.1m51.5 4.6c0 .8 0 1.1.1.7v-1.4l-.1.7m-11.6 3.2c0 1 0 1.3.1.8a7 7 0 0 0 0-1.7l-.1.9m45.7 1.7l-1.3 1.4 1.6-1.4a7 7 0 0 0 1.2-1.4s-.8.6-1.5 1.4m-69 5l-4.2 4.4 4.3-4.2a159.2 159.2 0 0 0-.1-.1m4.5 4.1c0 .6 0 .9.1.6V163l-.1.5m-63 3c.3.2.8.2 1 0h-1m75.9 3.7l-1 1 1-.9c1-.9 1.2-1.1 1-1.1l-1 1m-91.9 1.2l1.4 1.2-1-1.2a8.8 8.8 0 0 0-1.4-1.3l1 1.3m-15.7 7.3c0 2 0 2.7.1 1.7V177v1.8m147 4.3l-1.3 1.4 1.4-1.3c1.2-1.1 1.4-1.4 1.2-1.4l-1.3 1.3m-6.6 7l-1.2 1.3 1.3-1.3c1.2-1.1 1.5-1.4 1.2-1.4L362 190m-5.6 6.3l-1 1 1-.9c1-.8 1.2-1.1 1-1.1l-1 1m-18.6 3.6h1.6l-.9-.1c-.9 0-1.2 0-.7.1m-6.4 3.2l-1 1.1 1.1-1c1.1-1 1.3-1.3 1.1-1.3l-1.2 1.2m-87.6.3h1c.4-.1.1-.2-.5-.2s-.8 0-.5.2m3.3 7.7c0 .6.1 1.1.2 1.1l.1-1c0-.7 0-1.2-.2-1.2s-.2.5-.1 1.1m-88.2 1.8l1.4 1.2s-.4-.6-1.1-1.2a8.8 8.8 0 0 0-1.4-1.3l1 1.3m98.2 2.7c0 .2.3.2.8.1l1-.2c0-.3-1.6-.1-1.8.1M137.1 222c0 .6 0 .9.1.6v-1.1l-.1.5m169 3.7h1.5l-.7-.1c-.8 0-1.1 0-.7.1m-105.5 2.2h2.4l-1.2-.1c-1.3 0-1.8 0-1.2.1m-7.8 2.4l-.9 1 1-1c.6-.4 1-.9 1-1 0-.2-.2 0-1 1m-15.6 7.3h1.3-1.3m-7 3l-1.3 1.3 1.4-1.2a14 14 0 0 0 1.3-1.3c0-.3-.3 0-1.4 1.2m-10.1 4.9h2.3c.7-.1.1-.2-1.2-.2s-1.8.1-1.1.2m-87.5 10c0 .7 0 1 .1.6v-1c0-.4-.1-.1-.1.5m161.4 11.8h1.1c.3 0 .1-.1-.5-.1s-.9 0-.6.1M40.1 280.5h2.5l-1.4-.1h-1.1m157.6 5.4h2c.6 0 .2-.1-1-.1-1 0-1.5 0-1 .1m7 1h1.7c.3-.1 0-.2-1-.2-.8 0-1 0-.6.1M49.7 309.4c.8.9 1.6 1.6 1.7 1.6l-1.4-1.6a13 13 0 0 0-1.7-1.6l1.4 1.6m-30.1 2.5l1.4 1.3-1-1.3a8.8 8.8 0 0 0-1.5-1.2l1 1.2m95.5 7.4h.7-.7m6.4.4h2.8c.8-.1 0-.2-1.5-.2s-2.1.1-1.3.2"/></g></svg>