<svg xmlns="http://www.w3.org/2000/svg" viewBox="0 0 74 64.5"><g fill-rule="evenodd" clip-rule="evenodd"><path d="M17 46.44c2.57 5.47 7.5 6.76 11.86 7.63 8.65 1.73 15.96.7 23.66-2.66 1.8-.7 5.1-2.5 4.42-4.9 4.47 1 9.05 1.6 13.4 3 4.3 1.4 4.7 4.5.7 6.7-4.93 2.68-10.2 5.1-15.6 6.3C40.6 65.7 25.78 65.3 11.3 60.3c-3.05-1.07-6.1-2.56-8.8-4.35-3.5-2.3-3.23-4.9.7-6.17 4.47-1.45 9.17-2.16 13.8-3.2zm18.98-7.74l-7.9-.94-.75 6.32 7.9.94m-8.67-7.97L26.7 36l11.05 1.3-.12 1.08c4.27 0 10.76-1.02 13.06-2.1-2.5-7.95-5.2-16.67-7.7-24.83l10.7 5.22c.1-1.02-7.6-11.08-11.5-15.65-.6-.6-1.7-.98-2.5-1-3.9-.02-8.6 5.63-10.3 11.85-.3 1.14-1 4.6-1.13 5.25-.45 2.67 4.8-.4 6.26 1.56-1.6 0-3.2-.26-4.67.08-1.08.25-2.57 1.1-2.8 1.97-1.46 5.1-2.8 10.23-4.14 15.37 1.18.38 2.35.7 3.53.98z"/><path d="M52.65 43.13c-2.54 1.3-10.24 3.3-15.92 2.77l-.1.9-11.07-1.33.07-.54c-1.52-.33-3-.77-4.5-1.25-.1.46-.54.96-.33 1.4 3.38 7.2 22.47 6.83 33.14 2.33l-1.3-4.2z"/></g></svg>