<svg xmlns="http://www.w3.org/2000/svg" viewBox="0 0 751 384"><defs><mask id="a"><path fill="#D8D8D8" d="M-1.7.8h752v381h-752z"/></mask></defs><path fill="#FFF" fill-rule="evenodd" stroke="#FFF" d="M750.4 342.6l-205 2.5-8.7-75L488 166l-83-66-99-32 3.7-73.3h-84.3l22 70.8-103.8 29.3L63 152.2 8 243.7-.3 295l-1.3 86.7h752l-1-39h1z" mask="url(#a)"/><path fill="#4D4D4D" d="M735.3 353.2H540c.2-2.8.3-5.7.3-8.5 0-149-121.2-270-270-270-149 0-270.3 121-270.3 270 0 8 .4 16.2 1.2 25 .7 7.7 7.2 13.6 15 13.6h719.2c8.3 0 15-6.7 15-15s-6.7-15-15-15zm-705 0c-.2-2.8-.2-5.7-.2-8.5 0-109.6 74-202.3 175-231-46 46.8-76 135.4-77 239.5H30zm127.4 0c.8-126.2 51-233.3 112.5-243.7C331.6 120 381.8 227 382.6 353.2h-225zm352.4 0h-97c0-104-31-192.7-77-239.4 101 28.6 175 121.2 175 231v8.4zM250 30h41c8.2 0 15-6.7 15-15s-7-15-15-15h-41.4c-8.3 0-15 6.7-15 15s6.7 15 15 15z"/></svg>