<svg xmlns="http://www.w3.org/2000/svg" viewBox="0 0 60.39 50.13"><path fill="#F44336" d="M36.94 43.45c-.6 0-1.2-.4-1.4-.9-.1-.3-.1-.5-.1-.7l-1.7-.3c.4-1.9 2.3-11.7 6.7-13.7 1.3-.6 1.9 1.1 3.2 1.9 1.7 1 2.9.9 3 1.9.1 2.3-1.7 5-3.8 7.1 2.6-1.2 5-3 5-5.9 0-4.7-2.8-10.9 2.4-10.9.7 0 4.8.3 5.2.8.8 1.2.3 2.8-.4 4.8-.3.9-.9 2.7-.8 3.5.2 1.6 2.8.2 4.5-.8.3-.2.6.2.4.4-1.2 1.4-3.1 3.4-4.9 3.5-.8.1-1.6-.3-2.1-.9-1.4-1.6-.5-3.7.2-6.6.5-1.9.7-3.1.7-3-2.1 1-2.1 3.8-2.1 9.1 0 8.9-13.2 10.6-13.7 10.6-.2.1-.3.1-.3.1zm5.2-13c-.2 0-.3 0-.5.1-1.8.8-3.6 5.4-4.5 9.3 3.1-2.5 6.6-6.2 6.5-8.2 0-.3-.1-.6-.7-1-.3-.1-.6-.2-.8-.2z"/><path fill="#EF5350" d="M23.04 41.75l-3-.4c.1-.9.8-2.2 2.8-6 1.3-2.4 2.9-5.3 4.6-8.7.9-1.7.7-3.6-.4-5.1-1-1.4-2.7-2.1-4.3-1.9-2.1.4-3.8 2.4-4.8 5.8-1.4 4.6-3.2 5.7-5.6 6.2-1.5.3-3.2 1.2-4.4-.1-1.9-2.2-2.4-5.8-1.3-8.7.4-1.1 1.4-2.7 2.3-3.4-.2 0-2.3 1.5-5 1.5-1.2 0-2.2-.9-2.5-2.1-.8-3.2 3.1-8.2 10.4-13.4.3-.2.5.2.3.4-6.1 5.9-9.3 12.1-7.8 12.2.6 0 1.3-.1 1.9-.1 1.3-.2 6-.6 5.3.7-1.1 2-1.4 2.8-2.1 5.5-.5 2.2-.2 4.5.8 5.7.3.4.8.8 1.3.7.9-.2 2.3-1.8 3.5-5.7 1.8-6.1 5-6.2 6.9-6.6 2.6-.5 5.7-.6 7.4 1.7 1.8 2.4 2.1 5.5.7 8.3-1.7 3.4-3.3 6.4-4.6 8.8-1.1 2-2.3 4.2-2.4 4.7z"/><path fill="#212121" d="M39.44 42.55s-3.3-27.5-9.1-41.6c-.3-.8-1.5-.8-1.8 0-5.8 14.1-9.1 41.6-9.1 41.6h20z"/><path fill="#424242" d="M6.74 47.65c1 .3 1.4.9 1.4 1 3.9-.9 8.1-.6 11.9.7 12.8.5 25.7 0 38.5-1.5-8.8-4-18.7-6.3-29-6.3s-20.2 2.3-29 6.3c1.3.1 2.6.3 3.8.4.2-.8 1.6-.8 2.4-.6z"/><path fill="#C62828" d="M38.24 33.95c-.2-1-.3-2.1-.5-3.2-5.3-1.3-10.7-2-16.2-2-.2 1-.3 2-.5 3 5.8-.2 11.6.6 17.2 2.2zm-2.1-8.5c.2.2.5.4.7.6l-.6-3c-3.1-2.3-6.5-4.2-10.1-5.4 2.7-1.3 5.5-2.2 8.4-2.9-.2-.6-.3-1.3-.5-1.9-3.6.8-7 2-10.2 3.7l-.6 2.6c.1-.1.3-.2.4-.2 3.2.9 6.2 2.3 9 4-3.4-.3-6.9-.1-10.3.5-.1.7-.3 1.4-.4 2.1 4.8-.9 9.6-.9 14.2-.1zm-15.9 10.9c-.2 1.2-.3 2.3-.5 3.2 6.2-1.5 12.6-2.1 19-1.6-.1-.9-.3-1.9-.4-3-6-.4-12.1.1-18.1 1.4z"/></svg>